<?xml version="1.0" encoding="iso-8859-1"?>
<!-- Uploaded to: SVG Repo, www.svgrepo.com, Generator: SVG Repo Mixer Tools -->
<svg fill="#000000" height="800px" width="800px" version="1.1" id="Layer_1" xmlns="http://www.w3.org/2000/svg" xmlns:xlink="http://www.w3.org/1999/xlink" 
	 viewBox="0 0 488 488" xml:space="preserve">
<g>
	<g>
		<path d="M427.25,152.568L427.25,152.568l-101.5,0v-23.795l5.9,2.5c1.3,0.6,2.6,0.8,3.9,0.8c3.9,0,7.6-2.299,9.2-6.099
			c2.2-5.099-0.2-10.998-5.2-13.097l-13.8-5.899V81.582c0-5.499-4.5-9.998-10-9.998s-10,4.499-10,9.998v16.797l-102.7-44.091
			l9.9-28.994c1.3-3.699,0.2-7.798-2.6-10.498c-17.4-16.497-42.8-19.496-63.1-7.498c-0.1,0-0.1,0.1-0.2,0.1
			c-19.9,12.297-29.2,36.193-22.6,57.988c3.2,10.998,11.1,20.696,22.2,27.395c9.5,5.699,20.6,8.798,31.4,8.798c0.7,0,1.5,0,2.2,0
			c4.1-0.2,7.7-2.899,9.1-6.799l7.3-21.496l109.1,46.891v32.393h-245c-5.5,0-10,4.499-10,9.998v61.088c0,5.499,4.5,9.998,10,9.998
			h61.8v243.551c0,5.499,4.5,9.998,10,9.998c5.5,0,10-4.499,10-9.998V233.652h203.7v244.35c0,5.499,4.5,9.998,10,9.998
			s10-4.499,10-9.998v-244.35h61c5.5,0,10-4.499,10-9.998v-61.088C437.25,157.067,432.75,152.568,427.25,152.568z M172.75,81.282
			L172.75,81.282c-12.5-1.7-25.7-9.498-29.2-21.496v-0.1c-4-13.097,1.7-27.494,13.9-35.093c10.8-6.299,23.9-5.799,34.2,1
			L172.75,81.282z M417.25,213.656H70.75v-41.092h346.5V213.656z"/>
	</g>
</g>
</svg>