<?xml version="1.0" encoding="iso-8859-1"?>
<!-- Uploaded to: SVG Repo, www.svgrepo.com, Generator: SVG Repo Mixer Tools -->
<svg fill="#000000" height="800px" width="800px" version="1.1" id="Layer_1" xmlns="http://www.w3.org/2000/svg" xmlns:xlink="http://www.w3.org/1999/xlink" 
	 viewBox="0 0 470 470" xml:space="preserve">
<g>
	<g>
		<g>
			<path d="M365,0H105C84.322,0,67.5,16.823,67.5,37.5v395c0,20.677,16.822,37.5,37.5,37.5h260c20.678,0,37.5-16.823,37.5-37.5v-395
				C402.5,16.823,385.678,0,365,0z M387.5,432.5c0,12.406-10.094,22.5-22.5,22.5H105c-12.406,0-22.5-10.094-22.5-22.5v-395
				C82.5,25.094,92.594,15,105,15h260c12.406,0,22.5,10.094,22.5,22.5V432.5z"/>
			<path d="M235,395c-12.406,0-22.5,10.094-22.5,22.5S222.594,440,235,440s22.5-10.094,22.5-22.5S247.406,395,235,395z M235,425
				c-4.136,0-7.5-3.365-7.5-7.5s3.364-7.5,7.5-7.5s7.5,3.365,7.5,7.5S239.136,425,235,425z"/>
			<path d="M175,117.5h120c4.143,0,7.5-3.358,7.5-7.5c0-4.142-3.357-7.5-7.5-7.5H175c-4.143,0-7.5,3.358-7.5,7.5
				C167.5,114.142,170.857,117.5,175,117.5z"/>
			<path d="M175,167.5h120c4.143,0,7.5-3.358,7.5-7.5c0-4.142-3.357-7.5-7.5-7.5H175c-4.143,0-7.5,3.358-7.5,7.5
				C167.5,164.142,170.857,167.5,175,167.5z"/>
			<path d="M175,217.5h120c4.143,0,7.5-3.358,7.5-7.5c0-4.142-3.357-7.5-7.5-7.5H175c-4.143,0-7.5,3.358-7.5,7.5
				C167.5,214.142,170.857,217.5,175,217.5z"/>
			<path d="M175,267.5h120c4.143,0,7.5-3.358,7.5-7.5c0-4.142-3.357-7.5-7.5-7.5H175c-4.143,0-7.5,3.358-7.5,7.5
				C167.5,264.142,170.857,267.5,175,267.5z"/>
			<path d="M175,317.5h120c4.143,0,7.5-3.358,7.5-7.5c0-4.142-3.357-7.5-7.5-7.5H175c-4.143,0-7.5,3.358-7.5,7.5
				C167.5,314.142,170.857,317.5,175,317.5z"/>
			<path d="M355,40H115c-4.143,0-7.5,3.358-7.5,7.5v325c0,4.142,3.357,7.5,7.5,7.5h240c4.143,0,7.5-3.358,7.5-7.5v-325
				C362.5,43.358,359.143,40,355,40z M347.5,365h-225V55h225V365z"/>
		</g>
	</g>
</g>
</svg>