<svg xmlns="http://www.w3.org/2000/svg" viewBox="0 0 612 792"><g fill="#FFF"><path d="M306 216.1c-100.3 0-181.9 81.6-181.9 181.9S205.7 580 306 580s181.9-81.7 181.9-182c0-100.4-81.6-181.9-181.9-181.9zm0 315c-73.4 0-133.2-59.8-133.2-133.2S232.6 264.8 306 264.8 439.2 324.6 439.2 398 379.4 531.1 306 531.1zM306 179.4c13.5 0 24.4-10.9 24.4-24.4v-27.5c0-13.5-10.9-24.4-24.4-24.4-13.5 0-24.4 10.9-24.4 24.4V155c0 13.5 10.9 24.4 24.4 24.4zM306 612.6c-13.5 0-24.4 10.9-24.4 24.4v27.4c0 13.5 10.9 24.4 24.4 24.4s24.4-10.9 24.4-24.4V637c0-13.4-10.9-24.4-24.4-24.4zM574.5 371.6H547c-13.5 0-24.4 10.9-24.4 24.4s10.9 24.4 24.4 24.4h27.5c13.5 0 24.4-10.9 24.4-24.4 0-13.5-10.9-24.4-24.4-24.4zM65 371.6H37.5c-13.5 0-24.4 10.9-24.4 24.4s10.9 24.4 24.4 24.4h27.4c13.5 0 24.4-10.9 24.4-24.4.1-13.5-10.9-24.4-24.3-24.4zM478.6 189l-19.5 19.4c-9.6 9.6-9.6 25 0 34.5 9.6 9.6 25 9.6 34.5 0l19.4-19.4c9.6-9.6 9.6-25 0-34.5s-25-9.6-34.4 0zM118.3 549.1L99 568.5c-9.6 9.6-9.6 25 0 34.5s25 9.6 34.5 0l19.4-19.4c9.6-9.6 9.6-25 0-34.5s-25-9.4-34.6 0zM493.7 549.1c-9.6-9.6-25-9.6-34.5 0s-9.6 25 0 34.5l19.4 19.4c9.6 9.6 25 9.6 34.5 0s9.6-25 0-34.5l-19.4-19.4zM118.3 242.9c9.6 9.6 25 9.6 34.5 0 9.6-9.6 9.6-25 0-34.5L133.5 189c-9.6-9.6-25-9.6-34.5 0s-9.6 25 0 34.5l19.3 19.4z"/></g></svg>