<svg xmlns="http://www.w3.org/2000/svg" viewBox="0 0 612 792"><path fill="#FFF" d="M324.8 602C196.9 602 93.1 498 93.1 370.3S197 138.7 324.8 138.7c7.8 0 15.5.4 23.3 1.1 6.8.6 12.8 4.9 15.6 11.1 2.9 6.2 2.3 13.5-1.5 19.1-21.8 32-33.3 69.4-33.3 108.1 0 99.4 74.5 181.9 173.5 191.8 6.8.6 12.8 4.9 15.6 11.1 2.9 6.2 2.3 13.5-1.5 19.1C473 563.9 401.4 602 324.8 602zm-11.9-424.1c-100.8 6.2-181 90.1-181 192.5 0 106.3 86.6 192.9 192.9 192.9 53.4 0 103.8-22.2 140-60.3-43.7-11.1-83.4-34.9-114.4-68.8-38.9-42.8-60.4-98.1-60.4-155.8 0-35.2 7.8-69.4 22.9-100.5z"/></svg>