<?xml version="1.0" encoding="UTF-8"?>
<svg xmlns="http://www.w3.org/2000/svg" xmlns:xlink="http://www.w3.org/1999/xlink" viewBox="0 0 48 48" width="48px" height="48px">
<g id="surface130751848">
<path style=" stroke:none;fill-rule:nonzero;fill:rgb(5.490196%,77.64706%,5.490196%);fill-opacity:1;" d="M 13 42 L 35 42 C 38.867188 42 42 38.867188 42 35 L 42 13 C 42 9.132812 38.867188 6 35 6 L 13 6 C 9.132812 6 6 9.132812 6 13 L 6 35 C 6 38.867188 9.132812 42 13 42 Z M 13 42 "/>
<path style=" stroke:none;fill-rule:nonzero;fill:rgb(100%,100%,100%);fill-opacity:1;" d="M 35.449219 31.039062 L 30.839844 27.988281 C 30.273438 27.648438 29.570312 27.644531 29.003906 27.972656 C 29.003906 27.972656 29.003906 27.972656 27.023438 29.125 C 26.757812 29.28125 26.503906 29.308594 26.296875 29.269531 C 26.035156 29.222656 25.855469 29.078125 25.84375 29.070312 C 24.757812 28.273438 23.488281 27.21875 22.132812 25.863281 C 20.78125 24.511719 19.726562 23.242188 18.929688 22.152344 C 18.917969 22.140625 18.773438 21.960938 18.726562 21.699219 C 18.691406 21.492188 18.71875 21.238281 18.871094 20.972656 C 20.023438 18.996094 20.023438 18.996094 20.023438 18.996094 C 20.355469 18.425781 20.347656 17.722656 20.007812 17.160156 L 16.957031 12.546875 C 16.578125 11.976562 15.804688 11.824219 15.242188 12.214844 C 15.242188 12.214844 13.796875 13.203125 13.320312 13.539062 C 12.558594 14.078125 12.3125 14.898438 12.308594 16.035156 C 12.308594 17.640625 13.691406 22.664062 19.511719 28.488281 C 25.332031 34.308594 30.355469 35.691406 31.960938 35.6875 C 33.101562 35.6875 33.917969 35.441406 34.457031 34.675781 C 34.792969 34.199219 35.78125 32.753906 35.78125 32.753906 C 36.171875 32.191406 36.023438 31.417969 35.449219 31.039062 Z M 35.449219 31.039062 "/>
</g>
</svg>
