<svg xmlns="http://www.w3.org/2000/svg" viewBox="0 0 512 512"><g fill="#1fcfc1"><circle cx="256.551" cy="470.479" r="31.323"/><path d="M256 401.786c-17.34 0-31.395-14.057-31.395-31.395v-97.04c0-17.34 14.057-31.395 31.395-31.395 46.584 0 84.482-37.898 84.482-84.482S302.584 72.991 256 72.991s-84.482 37.898-84.482 84.482c0 17.34-14.057 31.395-31.395 31.395s-31.395-14.057-31.395-31.395C108.727 76.266 174.793 10.199 256 10.199s147.273 66.066 147.273 147.273c0 70.437-49.702 129.482-115.878 143.906v69.013c0 17.34-14.055 31.395-31.395 31.395z"/></g><g fill="#4d4d4d"><path d="M256.55 512c-22.895 0-41.522-18.627-41.522-41.522s18.627-41.522 41.522-41.522 41.522 18.627 41.522 41.522S279.445 512 256.55 512zm0-62.647c-11.647 0-21.124 9.476-21.124 21.124 0 11.647 9.476 21.125 21.124 21.125s21.124-9.476 21.124-21.124c-.001-11.647-9.477-21.125-21.124-21.125zM256 411.986c-22.935 0-41.594-18.659-41.594-41.594V273.35c0-22.935 18.659-41.594 41.594-41.594 40.96 0 74.284-33.323 74.284-74.284S296.96 83.189 256 83.189s-74.284 33.323-74.284 74.284c0 22.935-18.659 41.594-41.594 41.594s-41.594-18.659-41.594-41.594C98.527 70.642 169.169 0 256 0s157.473 70.642 157.473 157.473c0 36.106-12.579 71.41-35.42 99.404-20.756 25.44-49.086 43.867-80.458 52.489v61.025c-.001 22.936-18.66 41.595-41.595 41.595zm0-349.196c52.208 0 94.682 42.475 94.682 94.682S308.208 252.154 256 252.154c-11.687 0-21.196 9.509-21.196 21.196v97.041c0 11.687 9.509 21.196 21.196 21.196s21.196-9.509 21.196-21.196v-69.014a10.2 10.2 0 018.028-9.966c62.493-13.62 107.85-69.95 107.85-133.94 0-75.582-61.491-137.073-137.074-137.073S118.926 81.889 118.926 157.473c0 11.687 9.509 21.196 21.196 21.196s21.196-9.509 21.196-21.196c0-52.208 42.474-94.683 94.682-94.683z"/><path d="M256 379.41c-5.633 0-10.199-4.566-10.199-10.199v-59.155c0-5.633 4.566-10.199 10.199-10.199s10.199 4.566 10.199 10.199v59.155c0 5.633-4.566 10.199-10.199 10.199zM256 292.717c-5.633 0-10.199-4.566-10.199-10.199v-9.179c0-5.633 4.566-10.199 10.199-10.199s10.199 4.566 10.199 10.199v9.179c0 5.633-4.566 10.199-10.199 10.199z"/></g></svg>