<svg xmlns="http://www.w3.org/2000/svg" viewBox="0 0 612 792"><g fill="#FFF"><path d="M535.5 396H459c0-33.1-10.2-63.8-28.1-89.3l20.4-20.4c10.2-10.2 10.2-25.5 0-35.7-10.2-10.2-25.5-10.2-35.7 0L395.2 271c-17.8-12.8-40.8-22.9-63.8-25.5v-28.1c0-15.3-10.2-25.5-25.5-25.5s-25.5 10.2-25.5 25.5v28.1c-22.9 5.1-43.3 12.7-63.8 25.5l-20.4-20.4c-10.2-10.2-25.5-10.2-35.7 0-10.2 10.2-10.2 25.5 0 35.7l20.4 20.4C163.2 332.3 153 362.9 153 396H76.5C61.2 396 51 406.2 51 421.5S61.2 447 76.5 447h459.1c15.3 0 25.5-10.2 25.5-25.5S550.8 396 535.5 396zM204 396c0-56.1 45.9-102 102-102s102 45.9 102 102H204zM382.5 472.5h-153c-15.3 0-25.5 10.2-25.5 25.5s10.2 25.5 25.5 25.5h153c15.3 0 25.5-10.2 25.5-25.5s-10.2-25.5-25.5-25.5z"/></g><path fill="#FFF" d="M331.5 600h-51c-15.3 0-25.5-10.2-25.5-25.5s10.2-25.5 25.5-25.5h51c15.3 0 25.5 10.2 25.5 25.5S346.8 600 331.5 600z"/></svg>