<svg xmlns="http://www.w3.org/2000/svg" width="48" height="48"><path fill="#29b6f6" d="M24 4C13 4 4 13 4 24s9 20 20 20 20-9 20-20S35 4 24 4z"/><path fill="#fff" d="M34 15l-3.7 19.1s-.2.9-1.2.9c-.6 0-.9-.3-.9-.3L20 28l-4-2-5.1-1.4s-.9-.3-.9-1c0-.6.9-.9.9-.9l21.3-8.5s.7-.2 1.1-.2c.3 0 .6.1.6.5.1.3.1.5.1.5z"/><path fill="#b0bec5" d="M23 30.5l-3.4 3.4s-.1.1-.3.1h-.2l1-6 2.9 2.5z"/><path fill="#cfd8dc" d="M29.9 18.2c-.2-.2-.5-.3-.7-.1L16 26s2.1 5.9 2.4 6.9c.3 1 .6 1 .6 1l1-6 9.8-9.1c.2-.1.3-.4.1-.6z"/></svg>