<?xml version="1.0" encoding="utf-8"?>
<!-- Generator: Adobe Illustrator 18.0.0, SVG Export Plug-In . SVG Version: 6.00 Build 0)  -->
<!DOCTYPE svg PUBLIC "-//W3C//DTD SVG 1.1//EN" "http://www.w3.org/Graphics/SVG/1.1/DTD/svg11.dtd">
<svg version="1.1" id="Layer_1" xmlns="http://www.w3.org/2000/svg" xmlns:xlink="http://www.w3.org/1999/xlink" x="0px" y="0px"
	 viewBox="0 0 612 792" enable-background="new 0 0 612 792" xml:space="preserve">
<path fill="#FFFFFF" d="M336.6,273.6c0,67.6-54.8,122.4-122.4,122.4S91.8,341.2,91.8,273.6s54.8-122.4,122.4-122.4
	S336.6,206,336.6,273.6z M0,612.4c0-94.2,76.3-170.5,170.5-170.5h87.4c94.2,0,170.5,76.3,170.5,170.5c0,15.7-12.7,28.4-28.4,28.4
	H28.4C12.7,640.8,0,628.1,0,612.4z M482,449.5v-61.2h-61.2c-12.7,0-22.9-10.2-22.9-23c0-12.7,10.2-22.9,22.9-22.9H482v-61.2
	c0-12.7,10.2-23,22.9-23s23,10.2,23,23v61.2H589c12.7,0,23,10.2,23,22.9c0,12.7-10.2,23-23,23h-61.2v61.2c0,12.7-10.2,23-23,23
	S482,462.3,482,449.5z"/>
</svg>
