<svg version="1.1" id="Layer_1" xmlns="http://www.w3.org/2000/svg" xmlns:xlink="http://www.w3.org/1999/xlink" x="0" y="0" viewBox="0 0 1920 125" xml:space="preserve"><style>.st2{fill:#e6e6e6}</style><radialGradient id="SVGID_2_" cx="1515.166" cy="14.288" r="471.51" fx="1449.311" fy="15.01" gradientTransform="matrix(1.9181 0 0 .7968 -1699.362 42.343)" gradientUnits="userSpaceOnUse"><stop offset="0" stop-color="#fafafa"/><stop offset="1" stop-color="#d9d9d9"/></radialGradient><path d="M0 0v125h144.1c154.7-.4 342-.4 501.6 0H1920V0H0z" fill="url(#SVGID_2_)"/><defs><path id="SVGID_3_" d="M895.6.3h1024v124.9h-1024z"/></defs><clipPath id="SVGID_4_"><use xlink:href="#SVGID_3_" overflow="visible"/></clipPath><g opacity=".7" clip-path="url(#SVGID_4_)"><path class="st2" d="M1825.7 126.3l-2.7-.9-5.1-15.6 7.4-22.9 23.6 5 11 12.2-3.4 16.1-7 6.3h2.7l3.7-3.3-.7 3.3h1.8l1.1-5.4 12.2-11 16.1 3.4 11.9 13.2h2.5l-11.3-12.6 21 4.5-2.1 6.4-1.6 1.8h2.4l.7-.8.1-.1 2.3-7 7 1.5h.1l1.6-.3v-1.8l-1.6.3-6.6-1.4 6.6-20.4 1.6 4.8v-5.9l-.6-1.9.6-1.8v-5.8l-1.5 4.7-4.6-14.1-14.1-4.6 14.1-4.6 4.6-14.1 1.5 4.7v-5.9l-.6-1.7.6-1.7v-5.8l-1.5 4.6-6.6-20.4 6.6-1.4 1.5.3v-1.8l-1.4-.3h-.1l-7.2 1.5-2.2-6.8v-.1l-1.6.9 2.1 6.4-21 4.5-5.1 2.9-9.7 10.7-.3.3 3.1 14.5-10.7-9.7-.3-.3-14.5 3.1-5.1 2.9-14.4 16.1-4.5-5-1.6.9 4.9 5.5-4.8 5.3-.1.1-2.3 7-7-1.5h-.1v1.8l6.6 1.4-6.6 20.4v5.8l4.4 13.5c1.4.1 2.8.1 4.2.1zm44.6-18l-.4-.1-11 9.9 3-14.1.1-.4-9.9-11 14.1 3 .4.1 11-9.9-3 14.1-.1.4 9.9 11-14.1-3zm43-29.9l5.1 15.6-7.4 22.9-23.6-5-11-12.2 3.4-16.1 7.9-7.1 10.1-3.3 15.5 5.2zm-32.8-14.3l6.3 5.6 8.1 2.6-8 2.6-6.3 5.7 1.7-8.2v-.1l-1.8-8.2zm-4.1-19.1l11-12.2 23.6-5 7.4 22.9-5.1 15.6-15.6 5.1-10.1-3.3-7.9-7.1-3.3-16zm-26.5 9.5L1866 51l12.2 11 2.2 10.3-2.2 10.4-12.2 11-16.1-3.4-16.1-17.9 16.1-17.9zm-21.8 24.2l4.5-5 14.3 15.9-21-4.5 2.2-6.4zM1620.7 126.2l-2.4-.8-5.1-15.6 7.4-22.9 23.6 5 11 12.2-3.4 16.1-6.7 6h2.7l3.4-3-.6 3h1.8l1.1-5.1 12.2-11 16.1 3.4 11.3 12.6h2.4l-10.8-11.9 21 4.5-2.1 6.4-1 1.1h2.4l.1-.1 2.3-7 7 1.5h.1l7.2-1.5 2.3 6.9.1.2h2.4l-.9-1.1-2.1-6.4 21-4.5-10.8 11.9h2.4l11.3-12.6 16.1-3.4 12.2 11 1.1 5.1h1.8l-.6-3 3.3 3h2.7l-6.7-6-3.4-16.1 11-12.2 23.6-5 7.4 22.9-5.1 15.6-2.5.8h4.2l4.4-13.5v-5.8l-6.6-20.4 6.6-1.4v-1.8l-7.2 1.5-2.3-6.9-4.9-5.5 4.8-5.4.1-.1-1.4-.9-4.5 5-14.3-15.9-5.1-2.9-14.1-3-.4-.1-11 9.9 3-14.1.1-.4-9.9-11-5.1-2.9-21-4.5 2.1-6.4-1.6-.9-2.3 7-7-1.5h-.1l-7.2 1.5-2.2-6.8v-.1l-1.6.9 2.1 6.4-21 4.5-5.1 2.9-9.7 10.7-.3.3 3.1 14.5-10.7-9.7-.3-.3-14.5 3.1-5.1 2.9-14.4 15.9-4.5-5-1.6.9 4.9 5.5-4.8 5.3-.1.1-2.3 7-7-1.5h-.1v1.8l6.6 1.4-6.6 20.4v5.8l4.4 13.5h3.9zm44.9-17.9l-.4-.1-11 9.9 3-14.1.1-.4-9.9-11 14.1 3 .4.1 11-9.9-3 14.1-.1.4 9.9 11-14.1-3zm40.7 8.6l-23.6-5-11-12.2 3.4-16.1 7.9-7.1 10.1-3.3 15.6 5.1 5.1 15.6-7.5 23zm-30.5-52.8l6.3 5.6 8.1 2.6-8 2.6-6.3 5.7 1.7-8.2v-.1l-1.8-8.2zm20.2 8.3l14.1-4.6 4.6-14.1 4.6 14.1 14.1 4.6-13.7 4.5-.4.1-4.6 14.1-4.6-14.1-14.1-4.6zm18.7 46.3l-6.6-1.4 6.6-20.4 6.6 20.4-6.6 1.4zm31.9-6.8l-23.6 5-7.4-22.9 5.1-15.6 15.6-5.1 10.1 3.3 7.9 7.1 3.4 16.1-11.1 12.1zm5.7-39.6l-.5-.1v.1l1.8 8.3-6.3-5.6-8.1-2.6 8-2.6 6.3-5.7-1.7 8.1.5.1zm20.1 31l-.3.3 3.1 14.5-10.7-9.7-.3-.3-14.5 3.1 9.7-10.7.3-.3-3.1-14.5 10.7 9.7.3.3 14.5-3.1-9.7 10.7zm29-29.6l4.5 5 2.1 6.4-21 4.5 14.4-15.9zM1768 51l16.1 3.4 16.1 17.9-16.1 17.9-16.1 3.4-12.2-11-2.2-10.3 2.2-10.4L1768 51zm-44.9-23.2l23.6 5 11 12.2-3.4 16.1-7.9 7.1-10.1 3.3-15.6-5.1-5.1-15.6 7.5-23zm-8.4-1.8l6.6 1.4-6.6 20.4-6.6-20.4 6.6-1.4zm-43 19l11-12.2 23.6-5 7.4 22.9-5.1 15.6-15.6 5.1-10.1-3.3-7.9-7.1-3.3-16zm-26.5 9.5l16.1-3.4 12.2 11 2.2 10.3-2.2 10.4-12.2 11-16.1-3.4-16.1-17.9 16.1-18zm-21.8 24.2l4.5-5 14.3 15.9-21-4.5 2.2-6.4z"/><path class="st2" d="M1913.1-1.9c-.6 0-1.3.1-1.9.1l-.2.5-2.1-.4c-2.5.1-5.1.2-7.6.2l9.1 1.9-2.1 6.4-4.5 5-12-13.3h-2.4l13.2 14.7-16.1 17.9-16.1 3.4-12.2-11-2.2-10.3 2.2-10.4 4.5-4h-2.7l-1.1 1 .2-1h-1.9l-.6 3-7.9 7.1-10.1 3.3-15.6-5-2.6-7.9h-1.9l3 9.3 14.1 4.6-14.1 4.6L1817 32l-4.5-13.7-.1-.4-14.1-4.6 14.1-4.6 3-9.2h-1.9l-2.5 7.8-15.6 5.1-10.1-3.3-7.9-7.1-.5-2.2h-1.8V0l-.2-.2h-2.7l3.5 3.2 2.2 10.3-2.2 10.4-12.2 11-16.1-3.4-16.1-17.9 12-13.4h-2.4l-10.8 12-4.5-5-2.1-6.4 2.3-.5h-8.8l-2.4.5v1.8l7.2-1.5 2.3 6.9 4.9 5.5-4.8 5.4-.1.1 1.6.9 4.5-5 14.3 15.9 5.1 2.9 14.1 3 .4.1 11-9.9-3 14.1-.1.4 9.9 11 5.1 2.9 21 4.5-2 6.4 1.6.9 2.3-7 7 1.5h.1l7.2-1.5 2.2 6.8v.1l1.6-.9-2.1-6.4 21-4.5 5.1-2.9 9.7-10.7.3-.3-3.1-14.5 10.7 9.7.3.3 14.5-3.1 5.1-2.9 14.3-15.9 4.5 5 1.6-.9-4.9-5.5 4.9-5.4 2.3-7 7 1.5h.1V.5l-6.6-1.4.4-1zm-63.5 12.6l6.3-5.7-1.7 8.2v.1l1.8 8.3-6.3-5.6-8.1-2.6 8-2.7zm-70.3 2.6l.5.1v-.1L1778 5l6.3 5.6 8.1 2.6-8 2.6-6.3 5.7 1.7-8.1-.5-.1zm29.3 44.5l-23.6-5-11-12.2 3.4-16.1 7.9-7.1 10.1-3.3 15.6 5.1 5.1 15.6-7.5 23zm8.4 1.8l-6.6-1.4 6.6-20.4 6.6 20.4-6.6 1.4zm43-19l-11 12.2-23.6 5-7.4-22.9 5.1-15.6 15.6-5.1 10.1 3.3 7.9 7.1 3.3 16z"/><path class="st2" d="M1620.7 126.2l-2.4-.8-5.1-15.6 7.4-22.9 23.6 5 11 12.2-3.4 16.1-6.7 6h2.7l3.4-3-.6 3h1.8l1.1-5.1 12.2-11 16.1 3.4 11.3 12.6h2.4l-10.8-11.9 21 4.5-2.1 6.4-1 1.1h2.4l.1-.1 2.3-7 7 1.5h.1l7.2-1.5 2.3 6.9.1.2h2.4l-.9-1.1-2.1-6.4 21-4.5-10.8 11.9h2.4l11.3-12.6 16.1-3.4 12.2 11 1.1 5.1h1.8l-.6-3 3.3 3h2.7l-6.7-6-3.4-16.1 11-12.2 23.6-5 7.4 22.9-5.1 15.6-2.5.8h4.2l4.4-13.5v-5.8l-6.6-20.4 6.6-1.4v-1.8l-7.2 1.5-2.3-6.9-4.9-5.5 4.8-5.4.1-.1-1.4-.9-4.5 5-14.3-15.9-5.1-2.9-14.1-3-.4-.1-11 9.9 3-14.1.1-.4-9.9-11-5.1-2.9-21-4.5 2.1-6.4-1.6-.9-2.3 7-7-1.5h-.1l-7.2 1.5-2.2-6.8v-.1l-1.6.9 2.1 6.4-21 4.5-5.1 2.9-9.7 10.7-.3.3 3.1 14.5-10.7-9.7-.3-.3-14.5 3.1-5.1 2.9-14.4 15.9-4.5-5-1.6.9 4.9 5.5-4.8 5.3-.1.1-2.3 7-7-1.5h-.1v1.8l6.6 1.4-6.6 20.4v5.8l4.4 13.5h3.9zm44.9-17.9l-.4-.1-11 9.9 3-14.1.1-.4-9.9-11 14.1 3 .4.1 11-9.9-3 14.1-.1.4 9.9 11-14.1-3zm40.7 8.6l-23.6-5-11-12.2 3.4-16.1 7.9-7.1 10.1-3.3 15.6 5.1 5.1 15.6-7.5 23zm-30.5-52.8l6.3 5.6 8.1 2.6-8 2.6-6.3 5.7 1.7-8.2v-.1l-1.8-8.2zm20.2 8.3l14.1-4.6 4.6-14.1 4.6 14.1 14.1 4.6-13.7 4.5-.4.1-4.6 14.1-4.6-14.1-14.1-4.6zm18.7 46.3l-6.6-1.4 6.6-20.4 6.6 20.4-6.6 1.4zm31.9-6.8l-23.6 5-7.4-22.9 5.1-15.6 15.6-5.1 10.1 3.3 7.9 7.1 3.4 16.1-11.1 12.1zm5.7-39.6l-.5-.1v.1l1.8 8.3-6.3-5.6-8.1-2.6 8-2.6 6.3-5.7-1.7 8.1.5.1zm20.1 31l-.3.3 3.1 14.5-10.7-9.7-.3-.3-14.5 3.1 9.7-10.7.3-.3-3.1-14.5 10.7 9.7.3.3 14.5-3.1-9.7 10.7zm29-29.6l4.5 5 2.1 6.4-21 4.5 14.4-15.9zM1768 51l16.1 3.4 16.1 17.9-16.1 17.9-16.1 3.4-12.2-11-2.2-10.3 2.2-10.4L1768 51zm-44.9-23.2l23.6 5 11 12.2-3.4 16.1-7.9 7.1-10.1 3.3-15.6-5.1-5.1-15.6 7.5-23zm-8.4-1.8l6.6 1.4-6.6 20.4-6.6-20.4 6.6-1.4zm-43 19l11-12.2 23.6-5 7.4 22.9-5.1 15.6-15.6 5.1-10.1-3.3-7.9-7.1-3.3-16zm-26.5 9.5l16.1-3.4 12.2 11 2.2 10.3-2.2 10.4-12.2 11-16.1-3.4-16.1-17.9 16.1-18zm-21.8 24.2l4.5-5 14.3 15.9-21-4.5 2.2-6.4z"/><path class="st2" d="M1414 127.5c2.6.1 4.9.2 6.8.3l-7.1-2.3-5.1-15.6L1416 87l23.6 5 11 12.2-3.4 16.1-7.9 7.1-1.3.4h3.6l5-4.5-.9 4.4h1.9l1.4-6.5 12.2-11 16.1 3.4 12.1 13.5h2.4l-11.5-12.8 21 4.5-2.1 6.4-1.7 1.9h2.5l.7-.8.1-.1 2.3-7 7 1.5h.1l7.2-1.5 2.3 6.9.7.8h2.4l-1.5-1.6-2.1-6.4 21-4.5-11.2 12.5h2.4l11.8-13.1 16.1-3.4 12.2 11 1.1 5.3h1.8l-.7-3.2 3.5 3.2h2.7l-6.9-6.2-3.4-16.1 11-12.2 23.6-5 7.4 22.9-5.1 15.6-2.6.8h4.2l4.4-13.5v-5.8l-6.6-20.4 6.6-1.4v-1.8l-7.2 1.5-2.3-6.9-4.9-5.5 4.8-5.4.1-.1-1.6-.9-4.5 5-14.3-15.9-5.1-2.9-14.1-3-.4-.1-11 9.9 3-14.1.1-.4-9.9-11-5.1-2.9-21-4.5 2.1-6.4-1.6-.9-2.3 7-7-1.5h-.1l-7.2 1.5-2.2-6.8v-.1l-1.6.9 2.1 6.4-21 4.5-5.1 2.9-9.7 10.7-.3.3 3.1 14.5-10.7-9.7-.3-.3-14.5 3.1-5.1 2.9-14.5 15.6-4.5-5-1.6.9 4.9 5.5-4.8 5.3-.1.1-2.3 7-7-1.5h-.1v1.8l6.6 1.4-6.6 20.4v5.8l4.6 14.1 1.7.7zm46.9-19.2l-.4-.1-11 9.9 3-14.1.1-.4-9.9-11 14.1 3 .4.1 11-9.9-3 14.1-.1.4 9.9 11-14.1-3zm40.7 8.6l-23.6-5-11-12.2 3.4-16.1 7.9-7.1 10.1-3.3 15.6 5.1 5 15.7-7.4 22.9zm-30.5-52.8l6.3 5.6 8.1 2.6-8 2.6-6.3 5.7 1.7-8.2v-.1l-1.8-8.2zm20.1 8.3l14.1-4.6 4.6-14.1 4.6 14.1 14.1 4.6-13.7 4.5-.4.1-4.6 14.1-4.6-14.1-14.1-4.6zm18.8 46.3l-6.6-1.4 6.6-20.4 6.6 20.4-6.6 1.4zm31.9-6.8l-23.6 5-7.4-22.9 5.1-15.6 15.6-5.1 10.1 3.3 7.9 7.1 3.4 16.1-11.1 12.1zm5.7-39.6l-.5-.1v.1l1.8 8.3-6.3-5.6-8.1-2.6 8-2.6 6.3-5.7-1.7 8.1.5.1zm20.1 31l-.3.3 3.1 14.5-10.7-9.7-.3-.3-14.5 3.1 9.7-10.7.3-.3-3.1-14.5 10.7 9.7.3.3 14.5-3.1-9.7 10.7zm29-29.6l4.5 5 2.1 6.4-21 4.5 14.4-15.9zM1563.3 51l16.1 3.4 16.1 17.9-16.1 17.9-16.1 3.4-12.2-11-2.2-10.3 2.2-10.4 12.2-10.9zm-44.9-23.2l23.6 5 11 12.2-3.4 16.1-7.9 7.1-10.1 3.3-15.6-5.1-5.1-15.6 7.5-23zM1510 26l6.6 1.4-6.6 20.4-6.6-20.4 6.6-1.4zm-43 19l11-12.2 23.6-5 7.4 22.9-5.1 15.6-15.6 5.1-10.1-3.3-7.9-7.1-3.3-16zm-26.5 9.5l16.1-3.4 12.2 11 2.2 10.3-2.2 10.4-12.2 11-16.1-3.4-16.1-17.9 16.1-18zm-21.8 24.2l4.5-5 14.3 15.9-21-4.5 2.2-6.4zM1703.7 0l2 .4-2.1 6.4-4.5 5-10.7-11.9h-2.4l11.9 13.2-16.1 17.9-16.1 3.4-12.2-11-2.2-10.3 2.2-10.4 3.1-2.8h-4.4l-.4 1.9-7.9 7.1-10.1 3.3-15.6-5.1-2.3-7.1h-1.9l2.8 8.6 14.1 4.6-14.1 4.6-4.6 14.1-4.5-13.7-.1-.4-14.1-4.6 14.1-4.6 2.8-8.6h-1.9l-2.3 7.1-15.6 5.1-10.1-3.3-7.9-7.1-.4-1.9h-4.4l3.1 2.8 2.2 10.3-2.2 10.4-12.2 11-16.1-3.4-16.1-17.9 11.9-13.2h-2.4l-10.7 11.9-4.5-5-2.1-6.4 2.3-.4h-8.6l-2.5.5v1.8l7.2-1.5 2.3 6.9 4.9 5.5-4.8 5.4-.1.1 1.6.9 4.5-5 14.3 15.9 5.1 2.9 14.1 3 .4.1 11-9.9-3 14.1-.1.4 9.9 11 5.1 2.9 21 4.5-2.1 6.4 1.6.9 2.3-7 7 1.5h.1l7.2-1.5 2.2 6.8v.1l1.6-.9-2.1-6.4 21-4.5 5.1-2.9 9.7-10.7.3-.3-3.1-14.5 10.7 9.7.3.3 14.5-3.1 5.1-2.9 14.3-15.9 4.5 5 1.6-.9-4.9-5.5 4.9-5.4 2.3-7 7 1.5h.1V.5l-2.4-.5h-8.4zm-58.8 10.7l6.3-5.7-1.7 8.2v.1l1.8 8.3-6.3-5.6-8.1-2.6 8-2.7zm-70.3 2.6l.5.1v-.1l-1.8-8.3 6.3 5.6 8.1 2.6-8 2.6-6.3 5.7 1.7-8.1-.5-.1zm29.3 44.5l-23.6-5-11-12.2 3.4-16.1 7.9-7.1 10.1-3.3 15.6 5.1 5.1 15.6-7.5 23zm8.4 1.8l-6.6-1.4 6.6-20.4 6.6 20.4-6.6 1.4zm43-19l-11 12.2-23.6 5-7.4-22.9 5.1-15.6 15.6-5.1 10.1 3.3 7.9 7.1 3.3 16z"/><path class="st2" d="M1414 127.5c2.6.1 4.9.2 6.8.3l-7.1-2.3-5.1-15.6L1416 87l23.6 5 11 12.2-3.4 16.1-7.9 7.1-1.3.4h3.6l5-4.5-.9 4.4h1.9l1.4-6.5 12.2-11 16.1 3.4 12.1 13.5h2.4l-11.5-12.8 21 4.5-2.1 6.4-1.7 1.9h2.5l.7-.8.1-.1 2.3-7 7 1.5h.1l7.2-1.5 2.3 6.9.7.8h2.4l-1.5-1.6-2.1-6.4 21-4.5-11.2 12.5h2.4l11.8-13.1 16.1-3.4 12.2 11 1.1 5.3h1.8l-.7-3.2 3.5 3.2h2.7l-6.9-6.2-3.4-16.1 11-12.2 23.6-5 7.4 22.9-5.1 15.6-2.6.8h4.2l4.4-13.5v-5.8l-6.6-20.4 6.6-1.4v-1.8l-7.2 1.5-2.3-6.9-4.9-5.5 4.8-5.4.1-.1-1.6-.9-4.5 5-14.3-15.9-5.1-2.9-14.1-3-.4-.1-11 9.9 3-14.1.1-.4-9.9-11-5.1-2.9-21-4.5 2.1-6.4-1.6-.9-2.3 7-7-1.5h-.1l-7.2 1.5-2.2-6.8v-.1l-1.6.9 2.1 6.4-21 4.5-5.1 2.9-9.7 10.7-.3.3 3.1 14.5-10.7-9.7-.3-.3-14.5 3.1-5.1 2.9-14.5 15.6-4.5-5-1.6.9 4.9 5.5-4.8 5.3-.1.1-2.3 7-7-1.5h-.1v1.8l6.6 1.4-6.6 20.4v5.8l4.6 14.1 1.7.7zm46.9-19.2l-.4-.1-11 9.9 3-14.1.1-.4-9.9-11 14.1 3 .4.1 11-9.9-3 14.1-.1.4 9.9 11-14.1-3zm40.7 8.6l-23.6-5-11-12.2 3.4-16.1 7.9-7.1 10.1-3.3 15.6 5.1 5 15.7-7.4 22.9zm-30.5-52.8l6.3 5.6 8.1 2.6-8 2.6-6.3 5.7 1.7-8.2v-.1l-1.8-8.2zm20.1 8.3l14.1-4.6 4.6-14.1 4.6 14.1 14.1 4.6-13.7 4.5-.4.1-4.6 14.1-4.6-14.1-14.1-4.6zm18.8 46.3l-6.6-1.4 6.6-20.4 6.6 20.4-6.6 1.4zm31.9-6.8l-23.6 5-7.4-22.9 5.1-15.6 15.6-5.1 10.1 3.3 7.9 7.1 3.4 16.1-11.1 12.1zm5.7-39.6l-.5-.1v.1l1.8 8.3-6.3-5.6-8.1-2.6 8-2.6 6.3-5.7-1.7 8.1.5.1zm20.1 31l-.3.3 3.1 14.5-10.7-9.7-.3-.3-14.5 3.1 9.7-10.7.3-.3-3.1-14.5 10.7 9.7.3.3 14.5-3.1-9.7 10.7zm29-29.6l4.5 5 2.1 6.4-21 4.5 14.4-15.9zM1563.3 51l16.1 3.4 16.1 17.9-16.1 17.9-16.1 3.4-12.2-11-2.2-10.3 2.2-10.4 12.2-10.9zm-44.9-23.2l23.6 5 11 12.2-3.4 16.1-7.9 7.1-10.1 3.3-15.6-5.1-5.1-15.6 7.5-23zM1510 26l6.6 1.4-6.6 20.4-6.6-20.4 6.6-1.4zm-43 19l11-12.2 23.6-5 7.4 22.9-5.1 15.6-15.6 5.1-10.1-3.3-7.9-7.1-3.3-16zm-26.5 9.5l16.1-3.4 12.2 11 2.2 10.3-2.2 10.4-12.2 11-16.1-3.4-16.1-17.9 16.1-18zm-21.8 24.2l4.5-5 14.3 15.9-21-4.5 2.2-6.4zM1208.9 125.2l-5-15.4 7.4-22.9 23.6 5 11 12.2-3.4 16.1-5.7 5.2h2.7l2.4-2.2-.5 2.2h1.8l.9-4.3 12.2-11 16.1 3.4 10.8 12h2.4l-10.3-11.4 21 4.5-2.1 6.4-.5.6h2.2l2.2-6.7 7 1.5h.1l7.2-1.5 2.2 6.8h2.4l-.7-.8-2.1-6.4 21-4.5-10.6 11.7h2.4l11.2-12.4 16.1-3.4 12.2 11 1.1 5.3h1.9l-.7-3.3 3.7 3.3h2.7l-7.1-6.4-3.4-16.1 11-12.2 23.6-5 7.4 22.9-5.1 15.6-4.7 1.5c1.9 0 3.7.1 5.4.1l.3-.1.4-.1 4.6-14.1v-5.8l-6.6-20.4 6.6-1.4v-1.8l-7.2 1.5-2.3-6.9-4.9-5.5 4.8-5.4.1-.1-1.6-.9-4.5 5-14.3-15.9-5.1-2.9-14.1-3-.4-.1-11 9.9 3-14.1.1-.4-9.9-11-5.1-2.9-21-4.5 2.1-6.4-1.6-.9-2.3 7-7-1.5h-.1l-7.2 1.5-2.2-6.8v-.1l-1.6.9 2.1 6.4-21 4.5-5.1 2.9-9.7 10.7-.3.3 3.1 14.5-10.7-9.7-.3-.3-14.5 3.1-5.1 2.9-14.3 16.3-4.5-5-1.6.9 4.9 5.5-4.8 5.3-.1.1-2.3 7-7-1.5h-.1v1.8l6.6 1.4-6.6 20.4v5.8l4 12.5h1.9zm47.3-16.9l-.4-.1-11 9.9 3-14.1.1-.4-9.9-11 14.1 3 .4.1 11-9.9-3 14.1-.1.4 9.9 11-14.1-3zm40.7 8.6l-23.6-5-11-12.2 3.4-16.1 7.9-7.1 10.1-3.3 15.6 5.1 5.1 15.6-7.5 23zm-30.5-52.8l6.3 5.6 8.1 2.6-8 2.6-6.3 5.7 1.7-8.2v-.1l-1.8-8.2zm20.1 8.3l14.1-4.6 4.6-14.1 4.6 14.1 14.1 4.6-13.7 4.5-.4.1-4.6 14.1-4.6-14.1-14.1-4.6zm18.8 46.3l-6.6-1.4 6.6-20.4 6.6 20.4-6.6 1.4zm31.9-6.8l-23.6 5-7.4-22.9 5.1-15.6 15.6-5.1 10.1 3.3 7.9 7.1 3.4 16.1-11.1 12.1zm5.7-39.6l-.5-.1v.1l1.8 8.3-6.3-5.6-8.1-2.6 8-2.6 6.3-5.7-1.7 8.1.5.1zm20.1 31l-.3.3 3.1 14.5-10.7-9.7-.3-.3-14.5 3.1 9.7-10.7.3-.3-3.1-14.5 10.7 9.7.3.3 14.5-3.1-9.7 10.7zm29-29.6l4.5 5 2.1 6.4-21 4.5 14.4-15.9zM1358.6 51l16.1 3.4 16.1 17.9-16.1 17.9-16.1 3.4-12.2-11-2.2-10.3 2.2-10.4 12.2-10.9zm-45-23.2l23.6 5 11 12.2-3.4 16.1-7.9 7.1-10.1 3.3-15.6-5.1-5.1-15.6 7.5-23zm-8.3-1.8l6.6 1.4-6.6 20.4-6.6-20.4 6.6-1.4zm-43 19l11-12.2 23.6-5 7.4 22.9-5.1 15.6-15.6 5.1-10.1-3.3-7.9-7.1-3.3-16zm-26.5 9.5l16.1-3.4 12.2 11 2.2 10.3-2.2 10.4-12.2 11-16.1-3.4-16.1-17.9 16.1-18zM1214 78.7l4.5-5 14.3 15.9-21-4.5 2.2-6.4z"/><path class="st2" d="M1507.4 0h-8.9l2.5.5-2.1 6.4-4.5 5-10.9-12.1h-2.4l12.1 13.4-16.2 18-16.1 3.4-12.2-11-2.2-10.3 2.2-10.4 3.6-3.2h-2.7l-.3.3.1-.3h-1.8l-.5 2.3-7.9 7.1-10.1 3.3-15.6-5.1-2.6-7.9h-1.9l3 9.4 14.1 4.6L1412 18l-4.6 14.1-4.5-13.7-.1-.4-14.1-4.6 14.1-4.6 3.1-9.4h-1.9l-2.6 8-15.6 5.1-10.1-3.3-7.9-7.1-.7-3.1h-1.9l.2 1.1-1.2-1.1c-.9 0-1.8 0-2.8-.1L1366 3l2.2 10.3-2.2 10.4-12.2 11-16.1-3.4-15.7-18 13.5-15H1333.1L1320.7 12l-4.5-5-2.1-6.4 11.1-2.4c-2.4-.1-4.9-.2-7.3-.3l-4.3.9-.4-1.2h-1.9l.5 1.6-6.6 1.4v1.8l7.2-1.5 2.3 6.9 4.9 5.5-4.8 5.4-.1.1 1.6.9 4.5-5 14.3 15.9 5.1 2.9 14.1 3 .4.1 11-9.9-3 14.1-.1.4 9.9 11 5.1 2.9 21 4.5-2.1 6.4 1.6.9 2.3-7 7 1.5h.1l7.2-1.5 2.2 6.8v.1l1.6-.9-2.1-6.4 21-4.5 5.1-2.9 9.7-10.7.3-.3-3.1-14.5 10.7 9.7.3.3 14.5-3.1 5.1-2.9 14.3-15.9 4.5 5 1.6-.9-4.9-5.5 4.9-5.4 2.3-7 7 1.5h.1V.5l-2.4-.5zm-67.2 10.7l6.3-5.7-1.7 8.2v.1l1.8 8.3-6.3-5.6-8.1-2.6 8-2.7zm-70.3 2.6l.5.1v-.1l-1.8-8.3 6.3 5.6 8.1 2.6-8 2.6-6.3 5.7 1.7-8.1-.5-.1zm29.3 44.5l-23.6-5-11-12.2 3.4-16.1 7.9-7.1 10.1-3.3 15.6 5.1 5.1 15.6-7.5 23zm8.4 1.8l-6.6-1.4 6.6-20.4 6.6 20.4-6.6 1.4zm43-19l-11 12.2-23.6 5-7.4-22.9 5.1-15.6 15.6-5.1 10.1 3.3 7.9 7.1 3.3 16z"/><path class="st2" d="M1208.9 125.2l-5-15.4 7.4-22.9 23.6 5 11 12.2-3.4 16.1-5.7 5.2h2.7l2.4-2.2-.5 2.2h1.8l.9-4.3 12.2-11 16.1 3.4 10.8 12h2.4l-10.3-11.4 21 4.5-2.1 6.4-.5.6h2.2l2.2-6.7 7 1.5h.1l7.2-1.5 2.2 6.8h2.4l-.7-.8-2.1-6.4 21-4.5-10.6 11.7h2.4l11.2-12.4 16.1-3.4 12.2 11 1.1 5.3h1.9l-.7-3.3 3.7 3.3h2.7l-7.1-6.4-3.4-16.1 11-12.2 23.6-5 7.4 22.9-5.1 15.6-4.7 1.5c1.9 0 3.7.1 5.4.1l.3-.1.4-.1 4.6-14.1v-5.8l-6.6-20.4 6.6-1.4v-1.8l-7.2 1.5-2.3-6.9-4.9-5.5 4.8-5.4.1-.1-1.6-.9-4.5 5-14.3-15.9-5.1-2.9-14.1-3-.4-.1-11 9.9 3-14.1.1-.4-9.9-11-5.1-2.9-21-4.5 2.1-6.4-1.6-.9-2.3 7-7-1.5h-.1l-7.2 1.5-2.2-6.8v-.1l-1.6.9 2.1 6.4-21 4.5-5.1 2.9-9.7 10.7-.3.3 3.1 14.5-10.7-9.7-.3-.3-14.5 3.1-5.1 2.9-14.3 16.3-4.5-5-1.6.9 4.9 5.5-4.8 5.3-.1.1-2.3 7-7-1.5h-.1v1.8l6.6 1.4-6.6 20.4v5.8l4 12.5h1.9zm47.3-16.9l-.4-.1-11 9.9 3-14.1.1-.4-9.9-11 14.1 3 .4.1 11-9.9-3 14.1-.1.4 9.9 11-14.1-3zm40.7 8.6l-23.6-5-11-12.2 3.4-16.1 7.9-7.1 10.1-3.3 15.6 5.1 5.1 15.6-7.5 23zm-30.5-52.8l6.3 5.6 8.1 2.6-8 2.6-6.3 5.7 1.7-8.2v-.1l-1.8-8.2zm20.1 8.3l14.1-4.6 4.6-14.1 4.6 14.1 14.1 4.6-13.7 4.5-.4.1-4.6 14.1-4.6-14.1-14.1-4.6zm18.8 46.3l-6.6-1.4 6.6-20.4 6.6 20.4-6.6 1.4zm31.9-6.8l-23.6 5-7.4-22.9 5.1-15.6 15.6-5.1 10.1 3.3 7.9 7.1 3.4 16.1-11.1 12.1zm5.7-39.6l-.5-.1v.1l1.8 8.3-6.3-5.6-8.1-2.6 8-2.6 6.3-5.7-1.7 8.1.5.1zm20.1 31l-.3.3 3.1 14.5-10.7-9.7-.3-.3-14.5 3.1 9.7-10.7.3-.3-3.1-14.5 10.7 9.7.3.3 14.5-3.1-9.7 10.7zm29-29.6l4.5 5 2.1 6.4-21 4.5 14.4-15.9zM1358.6 51l16.1 3.4 16.1 17.9-16.1 17.9-16.1 3.4-12.2-11-2.2-10.3 2.2-10.4 12.2-10.9zm-45-23.2l23.6 5 11 12.2-3.4 16.1-7.9 7.1-10.1 3.3-15.6-5.1-5.1-15.6 7.5-23zm-8.3-1.8l6.6 1.4-6.6 20.4-6.6-20.4 6.6-1.4zm-43 19l11-12.2 23.6-5 7.4 22.9-5.1 15.6-15.6 5.1-10.1-3.3-7.9-7.1-3.3-16zm-26.5 9.5l16.1-3.4 12.2 11 2.2 10.3-2.2 10.4-12.2 11-16.1-3.4-16.1-17.9 16.1-18zM1214 78.7l4.5-5 14.3 15.9-21-4.5 2.2-6.4zM1004.1 125.2l-5-15.4 7.4-22.9 23.6 5 11 12.2-3.4 16.1-5.5 5h2.7l2.2-2-.4 2h1.8l.9-4 12.2-11 16.1 3.4L1078 125h2.4l-9.8-10.9 21 4.5-2.1 6.4h1.9l2-6 7 1.5h.1l7.2-1.5 2 6h1.9l-2.1-6.4 21-4.5-9.8 10.9h2.4l10.3-11.5 16.1-3.4 12.2 11 .8 4h1.8l-.4-1.9 2.1 1.9h2.7l-5.5-4.9-3.4-16.1 11-12.2 23.6-5 7.4 22.9-5 15.3h1.9l4-12.4v-5.8l-6.6-20.4 6.6-1.4v-1.8l-7.2 1.5-2.3-6.9-4.9-5.5 4.8-5.4.1-.1-1.6-.9-4.5 5-14.1-15.9-5.1-2.9-14.1-3-.4-.1-11 9.9 3-14.1.1-.4-9.9-11-5.1-2.9-21-4.5 2.1-6.4-1.6-.9-2.3 7-7-1.5h-.1l-7.2 1.5-2.2-6.8v-.1l-1.6.9 2.1 6.4-21 4.5-5.1 2.9-9.7 10.7-.3.3 3.1 14.5-10.7-9.7-.3-.3-14.5 3.1-5.1 2.9-14.3 15.9-4.5-5-1.6.9 4.9 5.5-4.8 5.3-.1.1-2.3 7-7-1.5h-.1v1.8l6.6 1.4-6.6 20.4v5.8l4 12.5h1.8zm47.4-16.9l-.4-.1-11 9.9 3-14.1.1-.4-9.9-11 14.1 3 .4.1 11-9.9-3 14.1-.1.4 9.9 11-14.1-3zm40.7 8.6l-23.6-5-11-12.2 3.4-16.1 7.9-7.1 10.1-3.3 15.6 5.1 5.1 15.6-7.5 23zm-30.5-52.8l6.3 5.6 8.1 2.6-8 2.6-6.3 5.7 1.7-8.2v-.1l-1.8-8.2zm20.1 8.3l14.1-4.6 4.6-14.1 4.6 14.1 14.1 4.6-13.7 4.5-.4.1-4.6 14.1L1096 77l-14.2-4.6zm18.8 46.3l-6.6-1.4 6.6-20.4 6.6 20.4-6.6 1.4zm31.9-6.8l-23.6 5-7.4-22.9 5.1-15.6 15.6-5.1 10.1 3.3 7.9 7.1 3.4 16.1-11.1 12.1zm5.7-39.6l-.5-.1v.1l1.8 8.3-6.3-5.6-8.1-2.6 8-2.6 6.3-5.7-1.7 8.1.5.1zm20.1 31l-.3.3 3.1 14.5-10.7-9.7-.3-.3-14.5 3.1 9.7-10.7.3-.3-3.1-14.5 10.7 9.7.3.3 14.5-3.1-9.7 10.7zm29-29.6l4.5 5 2.1 6.4-21 4.5 14.4-15.9zM1153.9 51l16.1 3.4 16.1 17.9-16.1 18-16.1 3.4-12.2-11-2.2-10.3 2.2-10.4 12.2-11zm-45-23.2l23.6 5 11 12.2-3.4 16.1-7.9 7.1-10.1 3.3-15.6-5.1-5.1-15.6 7.5-23zm-8.3-1.8l6.6 1.4-6.6 20.4-6.6-20.4 6.6-1.4zm-43 19l11-12.2 23.6-5 7.4 22.9-5.1 15.6-15.6 5.1-10.1-3.3-7.9-7.1-3.3-16zm-26.5 9.5l16.1-3.4 12.2 11 2.2 10.3-2.2 10.4-12.2 11-16.1-3.4-16.1-18 16.1-17.9zm-21.9 24.2l4.5-5 14.3 15.9-21-4.5 2.2-6.4z"/><path class="st2" d="M1299.1-2.4h-1.9l-.4 1.1-5.2-1.1h-8.5l13.1 2.8-2.1 6.4-4.5 5-12.8-14.2h-2.4l14 15.5-16.1 17.9-16.1 3.4-12.2-11-2.2-10.3 2.2-10.4 5.7-5.1h-2.7l-2.3 2.1.4-2.1h-1.8l-.9 4.1-7.9 7.1-10.1 3.3-15.6-5.1-3-9.3h-1.9l3.5 10.8 14.1 4.6-14.1 4.6-4.6 14.1-4.5-13.7-.1-.4-14.1-4.6 14.1-4.6 3.5-10.8h-1.9l-3 9.3-15.6 5.1-10.1-3.3-7.9-7.1-.9-4h-1.8l.4 2-2.2-2h-2.7l5.5 5 2.2 10.3-2.2 10.4-12.2 11-16.1-3.4-16.1-17.9 14-15.1h-2.4l-12.6 13.9-4.5-5-2.1-6.4 11.6-2.5h-8.7l-3.5.7-.2-.7h-1.9l.4 1.1-6.6 1.4v1.8l7.2-1.5 2.3 6.9 4.9 5.5-4.8 5.4-.1.1 1.6.9 4.5-5 14.3 15.9 5.1 2.9 14.1 3 .4.1 11-9.9-3 14.1-.1.4 9.9 11 5.1 2.9 21 4.5-2.1 6.4 1.6.9 2.3-7 7 1.5h.1l7.2-1.5 2.2 6.8v.1l1.6-.9-2.1-6.4 21-4.5 5.1-2.9 9.7-10.7.3-.3-3.1-14.5 10.7 9.7.3.3 14.5-3.1 5.1-2.9 14.3-15.9 4.5 5 1.6-.9-4.9-5.5 4.9-5.4 2.3-7 7 1.5h.1V.5l-6.6-1.4.5-1.5zm-63.6 13.1l6.3-5.7-1.7 8.2v.1l1.8 8.3-6.3-5.6-8.1-2.6 8-2.7zm-70.3 2.6l.5.1v-.1L1164 5l6.3 5.6 8.1 2.6-8 2.6-6.3 5.7 1.7-8.1-.6-.1zm29.3 44.5l-23.6-5-11-12.2 3.4-16.1 7.9-7.1 10.1-3.3 15.6 5.1 5.1 15.6-7.5 23zm8.4 1.8l-6.6-1.4 6.6-20.4 6.6 20.4-6.6 1.4zm43-19l-11 12.2-23.6 5-7.4-22.9 5.1-15.6 15.6-5.1 10.1 3.3 7.9 7.1 3.3 16zM1004.1 125.2l-5-15.4 7.4-22.9 23.6 5 11 12.2-3.4 16.1-5.5 5h2.7l2.2-2-.4 2h1.8l.9-4 12.2-11 16.1 3.4L1078 125h2.4l-9.8-10.9 21 4.5-2.1 6.4h1.9l2-6 7 1.5h.1l7.2-1.5 2 6h1.9l-2.1-6.4 21-4.5-9.8 10.9h2.4l10.3-11.5 16.1-3.4 12.2 11 .8 4h1.8l-.4-1.9 2.1 1.9h2.7l-5.5-4.9-3.4-16.1 11-12.2 23.6-5 7.4 22.9-5 15.3h1.9l4-12.4v-5.8l-6.6-20.4 6.6-1.4v-1.8l-7.2 1.5-2.3-6.9-4.9-5.5 4.8-5.4.1-.1-1.6-.9-4.5 5-14.1-15.9-5.1-2.9-14.1-3-.4-.1-11 9.9 3-14.1.1-.4-9.9-11-5.1-2.9-21-4.5 2.1-6.4-1.6-.9-2.3 7-7-1.5h-.1l-7.2 1.5-2.2-6.8v-.1l-1.6.9 2.1 6.4-21 4.5-5.1 2.9-9.7 10.7-.3.3 3.1 14.5-10.7-9.7-.3-.3-14.5 3.1-5.1 2.9-14.3 15.9-4.5-5-1.6.9 4.9 5.5-4.8 5.3-.1.1-2.3 7-7-1.5h-.1v1.8l6.6 1.4-6.6 20.4v5.8l4 12.5h1.8zm47.4-16.9l-.4-.1-11 9.9 3-14.1.1-.4-9.9-11 14.1 3 .4.1 11-9.9-3 14.1-.1.4 9.9 11-14.1-3zm40.7 8.6l-23.6-5-11-12.2 3.4-16.1 7.9-7.1 10.1-3.3 15.6 5.1 5.1 15.6-7.5 23zm-30.5-52.8l6.3 5.6 8.1 2.6-8 2.6-6.3 5.7 1.7-8.2v-.1l-1.8-8.2zm20.1 8.3l14.1-4.6 4.6-14.1 4.6 14.1 14.1 4.6-13.7 4.5-.4.1-4.6 14.1L1096 77l-14.2-4.6zm18.8 46.3l-6.6-1.4 6.6-20.4 6.6 20.4-6.6 1.4zm31.9-6.8l-23.6 5-7.4-22.9 5.1-15.6 15.6-5.1 10.1 3.3 7.9 7.1 3.4 16.1-11.1 12.1zm5.7-39.6l-.5-.1v.1l1.8 8.3-6.3-5.6-8.1-2.6 8-2.6 6.3-5.7-1.7 8.1.5.1zm20.1 31l-.3.3 3.1 14.5-10.7-9.7-.3-.3-14.5 3.1 9.7-10.7.3-.3-3.1-14.5 10.7 9.7.3.3 14.5-3.1-9.7 10.7zm29-29.6l4.5 5 2.1 6.4-21 4.5 14.4-15.9zM1153.9 51l16.1 3.4 16.1 17.9-16.1 18-16.1 3.4-12.2-11-2.2-10.3 2.2-10.4 12.2-11zm-45-23.2l23.6 5 11 12.2-3.4 16.1-7.9 7.1-10.1 3.3-15.6-5.1-5.1-15.6 7.5-23zm-8.3-1.8l6.6 1.4-6.6 20.4-6.6-20.4 6.6-1.4zm-43 19l11-12.2 23.6-5 7.4 22.9-5.1 15.6-15.6 5.1-10.1-3.3-7.9-7.1-3.3-16zm-26.5 9.5l16.1-3.4 12.2 11 2.2 10.3-2.2 10.4-12.2 11-16.1-3.4-16.1-18 16.1-17.9zm-21.9 24.2l4.5-5 14.3 15.9-21-4.5 2.2-6.4zM998.2 83.3l-7.2 1.5-2.3-6.9-4.9-5.5 4.8-5.4.1-.1-1.6-.9-4.5 5-14.3-15.9-5.1-2.9-14.1-3-.4-.1-11 9.9 3-14.1.1-.4-9.9-11-5.1-2.9-21-4.5 2.1-6.4-1.6-.9-2.3 7-7-1.5h-.1l-1.4.3v1.8l1.4-.3 6.6 1.4-6.6 20.4-1.3-4v5.9l.3 1-.3 1v5.8l1.2-3.8 4.6 14.1 14.1 4.6-13.7 4.5-.4.1-4.6 14.1-1.2-3.8v5.8l.3.9-.3.9v5.9l1.3-3.9 6.6 20.4-6.6 1.4-1.3-.3v1.8l1.1.2h.1l7.2-1.5 2.2 6.8h2.3l-.6-.7-2.1-6.4 21-4.5-10.4 11.5h2.5l10.9-12.2 16.1-3.4 12.2 11 .9 4.3h1.8l-.5-2.2 2.5 2.2h2.7l-5.8-5.2-3.4-16.1 11-12.2 23.6-5 7.4 22.9-5 15.4h1.9l4.1-12.5v-5.8l-6.6-20.4 6.6-1.4v-1.8zm-96.3-17l-5.1-15.6 7.4-22.9 23.6 5 11 12.2-3.4 16.1-7.9 7.1-10.1 3.3-15.5-5.2zm31.6 6l-.5-.1v.1l1.8 8.3-6.3-5.6-8.1-2.6 8-2.6 6.3-5.7-1.7 8.1.5.1zm-5.7 39.6l-23.6 5-7.4-22.9 5.1-15.6 15.6-5.1 10.1 3.3 7.9 7.1 3.4 16.1-11.1 12.1zm25.8-8.6l-.3.3 3.1 14.5-10.7-9.7-.3-.3-14.5 3.1 9.7-10.7.3-.3-3.1-14.5 10.7 9.7.3.3 14.5-3.1-9.7 10.7zm11.7-13l-16.1 3.4-12.2-11-2.2-10.3L937 62l12.2-11 16.1 3.4 16.1 17.9-16.1 18zm3-.7l14.3-15.9 4.5 5 2.1 6.4-20.9 4.5z"/><path class="st2" d="M1094.3-2h-1.9l-.2.8-3.6-.8h-8.7l11.8 2.5-2.1 6.4-4.5 5-12.6-14h-2.4l13.8 15.3-16.1 17.9-16.1 3.4-12.2-11-2.2-10.3 2.2-10.4 5.6-5h-2.7l-2.3 2 .4-2.1h-1.8l-.9 4.1-7.9 7.1-10.1 3.3-15.6-5.1-3.1-9.5h-1.9l3.6 11 14.1 4.6-14.1 4.6-4.6 14.2-4.5-13.7-.1-.4-14.1-4.6 14.1-4.6 3.6-11h-1.9l-3.1 9.6-15.6 5.1-10.1-3.3-7.8-7.1-1-4.6h-1.9l.5 2.5-2.8-2.5h-2.7L957 3l2.2 10.3-2.2 10.3-12.2 11-16.1-3.4-16.1-17.9 14.5-16.1h-2.4L911.4 12l-4.5-5-2.1-6.4 15.8-3.4h-8.4l-8 1.7-.5-1.9h-1.9l.7 2.2-6.6 1.4v1.8l7.2-1.5 2.3 6.9 4.9 5.5-4.8 5.4-.1.1 1.6.9 4.5-5 14.3 15.9 5.1 2.9 14.1 3 .4.1 11-9.9-3 14.1-.1.4 9.9 11 5.1 2.9 21 4.5-2.1 6.4 1.6.9 2.3-7 7 1.5h.1l7.2-1.5 2.2 6.8v.1l1.6-.9-2.1-6.4 21-4.5 5.1-2.9 9.7-10.7.3-.3-3.1-14.5 10.7 9.7.3.3 14.5-3.1 5.1-2.9 14.3-15.9 4.5 5 1.6-.9-4.9-5.5 4.9-5.4 2.3-7 7 1.5h.1V.5l-6.6-1.4.4-1.1zm-63.5 12.7l6.3-5.7-1.7 8.2v.1l1.8 8.3-6.3-5.6-8.1-2.6 8-2.7zm-70.3 2.6l.5.1v-.1L959.3 5l6.3 5.6 8.1 2.6-8 2.6-6.3 5.7 1.7-8.1-.6-.1zm29.3 44.5l-23.6-5-11-12.2 3.4-16.1 7.9-7.1 10.1-3.3 15.6 5.1 5.1 15.6-7.5 23zm8.4 1.8l-6.6-1.4 6.6-20.4 6.6 20.4-6.6 1.4zm42.9-19l-11 12.2-23.6 5-7.4-22.9 5.1-15.6 15.6-5.1 10.1 3.3 7.9 7.1 3.3 16z"/></g><g><defs><path id="SVGID_1_" d="M0 125l895.6.3V.3L0 0z"/></defs><clipPath id="SVGID_5_"><use xlink:href="#SVGID_1_" overflow="visible"/></clipPath><g opacity=".7" clip-path="url(#SVGID_5_)"><path class="st2" d="M178.9 85.1v-1.8h-.1l-7 1.5-2.3-7-.1-.1-4.8-5.3 4.9-5.5-1.6-.9-4.5 5L149 55.1l-5.1-2.9-14.5-3.1-.3.3-10.7 9.6 3.1-14.5-.3-.3-9.7-10.7-5.1-2.9-21-4.5 2.1-6.4-1.5-1v.1l-2.2 6.8-7.2-1.5h-.1l-7 1.5-2.3-7-1.6.9 2.1 6.4-21 4.5-5.1 2.9-9.9 11 .1.4 3 14.1-11-9.9-.4.1-14.1 3-5.1 2.9L.6 59v2.7l6.5-7.2L23.2 51l12.2 11 2.2 10.4-2.2 10.3-12.2 11-16.1-3.4-6.5-7.2v2.7l3.5 3.9L.6 89v1.8L6.2 92l11 12.2-3.4 16.1-6.7 6h2.7l3.3-3-.6 3h1.8l1.1-5.1 12.2-11 16.1 3.4L55 126.1h2.4l-10.8-11.9 21 4.5-2.1 6.4-.9 1.1H67l.1-.2 2.3-6.9 7.2 1.5h.1l7-1.5 2.3 7 .1.1h2.4l-1-1.1-2.1-6.4 21-4.5-10.8 11.9H98l11.3-12.6 16.1-3.4 12.2 11 1.1 5.1h1.8l-.6-3 3.4 3h2.7l-6.7-6-3.4-16.1 11-12.2 23.6-5 7.4 22.9-5.1 15.6-2.4.8h4.1l4.4-13.5v-5.8l-6.6-20.4 6.6-1.4zm-94-57.3l23.6 5 11 12.2-3.4 16.1-7.9 7.1-10.1 3.3-15.6-5.1-5.1-15.6 7.5-23zm28.8 44.7l1.7 8.2-6.3-5.7-8-2.6 8.1-2.6 6.3-5.6-1.8 8.3zm-18.4-.1L81.1 77l-4.6 14.1L72 77l-.4-.1-13.7-4.5L72 67.8l4.6-14.1 4.6 14.1 14.1 4.6zM76.6 26l6.6 1.4-6.6 20.4L70 27.4l6.6-1.4zM37 61.1L33.6 45l11-12.2 23.6-5 7.4 22.9-5.1 15.6-15.6 5.1-10.1-3.3-7.8-7zm2.4 11.1l-.5.1.5-.1-1.7-8.2 6.3 5.7 8 2.6-8.1 2.7-6.3 5.6 1.8-8.3v-.1zm-12.3 36l-.3.3-10.8 9.6 3.1-14.5-.3-.3-9.6-10.7 14.5 3.1.3-.3 10.7-9.7-3.1 14.5.3.3 9.7 10.7-14.5-3zm41.1 8.7l-23.6-5-11-12.2 3.4-16 7.9-7.1L55 73.3l15.6 5.1 5 15.6-7.4 22.9zm8.4 1.8l-6.6-1.4 6.6-20.4 6.6 20.4-6.6 1.4zm31.9-6.8l-23.6 5L77.5 94l5.1-15.6 15.6-5.1 10.1 3.3 7.9 7.1 3.4 16.1-11.1 12.1zm25.5-8.3l.1.4 3 14.1-11-9.9-.4.1-14.1 3 9.9-11-.1-.4-3-14.1 11 9.9.4-.1 14.1-3-9.9 11zm12-13.3l-16.1 3.4-12.2-11-2.2-10.4 2.2-10.3 12.2-11 16.1 3.4 16.1 17.9-16.1 18zm3-.7l14.3-15.9 4.5 5 2.1 6.4-20.9 4.5z"/><path class="st2" d="M76.5.5L74.1 0h-8.8l2.3.5-2.1 6.4-4.5 5-10.8-12h-2.4l12 13.4-16.2 17.9-16.1 3.4-12.2-11-2.2-10.4 2.2-10.3 3.5-3.2h-2.7l-.1.2v-.2h-1.8L13.7 2 5.9 9.1.6 10.8v1.9l6.2-2L13.1 5l-1.8 8.3v.1l.5-.1-.5.1 1.7 8.1-6.3-5.7-6.1-2v1.9l5.3 1.7 7.9 7.1 3.4 16.1-11 12.2L.6 54v1.8l3.5-.7 5.1-2.9 9.9-11-.1-.5-3-14.1 11 9.9.4-.1 14.1-3 5.1-2.9L61 14.6l4.5 5 1.6-.9-.1-.1-4.8-5.4 4.9-5.5L69.4.8l7.2 1.5-.1-1.8z"/><path class="st2" d="M178.9 85.1v-1.8h-.1l-7 1.5-2.3-7-.1-.1-4.8-5.3 4.9-5.5-1.6-.9-4.5 5L149 55.1l-5.1-2.9-14.5-3.1-.3.3-10.7 9.6 3.1-14.5-.3-.3-9.7-10.7-5.1-2.9-21-4.5 2.1-6.4-1.5-1v.1l-2.2 6.8-7.2-1.5h-.1l-7 1.5-2.3-7-1.6.9 2.1 6.4-21 4.5-5.1 2.9-9.9 11 .1.4 3 14.1-11-9.9-.4.1-14.1 3-5.1 2.9L.6 59v2.7l6.5-7.2L23.2 51l12.2 11 2.2 10.4-2.2 10.3-12.2 11-16.1-3.4-6.5-7.2v2.7l3.5 3.9L.6 89v1.8L6.2 92l11 12.2-3.4 16.1-6.7 6h2.7l3.3-3-.6 3h1.8l1.1-5.1 12.2-11 16.1 3.4L55 126.1h2.4l-10.8-11.9 21 4.5-2.1 6.4-.9 1.1H67l.1-.2 2.3-6.9 7.2 1.5h.1l7-1.5 2.3 7 .1.1h2.4l-1-1.1-2.1-6.4 21-4.5-10.8 11.9H98l11.3-12.6 16.1-3.4 12.2 11 1.1 5.1h1.8l-.6-3 3.4 3h2.7l-6.7-6-3.4-16.1 11-12.2 23.6-5 7.4 22.9-5.1 15.6-2.4.8h4.1l4.4-13.5v-5.8l-6.6-20.4 6.6-1.4zm-94-57.3l23.6 5 11 12.2-3.4 16.1-7.9 7.1-10.1 3.3-15.6-5.1-5.1-15.6 7.5-23zm28.8 44.7l1.7 8.2-6.3-5.7-8-2.6 8.1-2.6 6.3-5.6-1.8 8.3zm-18.4-.1L81.1 77l-4.6 14.1L72 77l-.4-.1-13.7-4.5L72 67.8l4.6-14.1 4.6 14.1 14.1 4.6zM76.6 26l6.6 1.4-6.6 20.4L70 27.4l6.6-1.4zM37 61.1L33.6 45l11-12.2 23.6-5 7.4 22.9-5.1 15.6-15.6 5.1-10.1-3.3-7.8-7zm2.4 11.1l-.5.1.5-.1-1.7-8.2 6.3 5.7 8 2.6-8.1 2.7-6.3 5.6 1.8-8.3v-.1zm-12.3 36l-.3.3-10.8 9.6 3.1-14.5-.3-.3-9.6-10.7 14.5 3.1.3-.3 10.7-9.7-3.1 14.5.3.3 9.7 10.7-14.5-3zm41.1 8.7l-23.6-5-11-12.2 3.4-16 7.9-7.1L55 73.3l15.6 5.1 5 15.6-7.4 22.9zm8.4 1.8l-6.6-1.4 6.6-20.4 6.6 20.4-6.6 1.4zm31.9-6.8l-23.6 5L77.5 94l5.1-15.6 15.6-5.1 10.1 3.3 7.9 7.1 3.4 16.1-11.1 12.1zm25.5-8.3l.1.4 3 14.1-11-9.9-.4.1-14.1 3 9.9-11-.1-.4-3-14.1 11 9.9.4-.1 14.1-3-9.9 11zm12-13.3l-16.1 3.4-12.2-11-2.2-10.4 2.2-10.3 12.2-11 16.1 3.4 16.1 17.9-16.1 18zm3-.7l14.3-15.9 4.5 5 2.1 6.4-20.9 4.5z"/><path class="st2" d="M379 126.9l4.6-14.1V107L377 86.5l6.6-1.4v-1.8h-.1l-7 1.5-2.3-7-.1-.1-4.8-5.3 4.9-5.5-1.6-.9-4.5 5-14.3-15.9-5.1-2.9-14.5-3.1-.3.3-10.8 9.6 3.1-14.5-.3-.3-9.7-10.7-5.1-2.9-21-4.5 2.1-6.4-1.6-.9v.1l-2.2 6.8-7.2-1.5h-.1l-7 1.5-2.3-7-1.6.9 2.1 6.4-21 4.5-5.1 2.9-9.9 11 .1.4 3 14.1-11-9.9-.4.1-14.1 3-5.1 2.9-14.3 16-4.5-5-1.6.9.1.1 4.8 5.4-4.9 5.5-2.3 6.9-7.2-1.5v1.8l6.6 1.4-6.6 20.4v5.8l4.4 13.5h4.2l-2.6-.8-5.1-15.6 7.4-22.9 23.6 5 11 12.2-3.4 16.1-6.9 6.2h2.7l3.5-3.2-.7 3.2h1.8l1.1-5.3 12.2-11 16.1 3.4 11.8 13.1h2.4l-11.2-12.5 21 4.5-2.1 6.4-1.5 1.6h2.4l.7-.8 2.3-6.9 7.2 1.5h.1l7-1.5 2.3 7 .1.1.7.8h2.5l-1.7-1.9-2.1-6.4 21-4.5-11.5 13h2.4l12.1-13.5 16.1-3.4 12.2 11 1.4 6.5h1.9l-.9-4.4 5 4.5h3.6l-1.3-.4-7.9-7.1-3.4-16.1 11-12.2 23.6-5 7.4 22.9-5.1 15.6-7.1 2.3c1.9-.1 4.1-.2 6.8-.3l1.6-.5zm-62.8-15.6l9.9-11-.1-.4-3-14.1 11 9.9.4-.1 14.1-3-9.9 11 .1.4 3 14.1-11-9.9-.4.1-14.1 3zm-34-17.3l5.1-15.6 15.6-5.1 10.1 3.3 7.9 7.1 3.4 16.1-11 12.2-23.6 5-7.5-23zm36.2-21.6v.1l1.7 8.2-6.3-5.7-8-2.6 8.1-2.6 6.3-5.6-1.8 8.2zM285.8 77l-4.6 14.1-4.5-14.1-.4-.1-13.7-4.5 14.1-4.6 4.6-14.1 4.6 14.1 14.1 4.6-14.2 4.6zm-11.2 40.3l6.6-20.4 6.6 20.4-6.6 1.4-6.6-1.4zm-36.3-17.6l3.4-16.1 7.9-7.1 10.1-3.3 15.6 5.1 5.1 15.6-7.4 22.9-23.6-5-11.1-12.1zm5.8-27.5l-1.7-8.1 6.3 5.7 8 2.6-8.1 2.6-6.3 5.6 1.8-8.3v-.1l-.5.1.5-.1zm-30.2 20.4l14.5 3.1.3-.3 10.7-9.7-3.1 14.5.3.3 9.7 10.7-14.5-3.1-.3.3-10.7 9.7 3.1-14.5-.3-.3-9.7-10.7zm-5.1-3l-21-4.5 2.1-6.4 4.5-5 14.4 15.9zM240.1 62l2.2 10.4-2.2 10.3-12.2 11-16.1-3.4-16.1-17.9 16.1-17.9 16.1-3.4L240.1 62zm40.2-11.3l-5.1 15.6-15.6 5.1-10.1-3.3-7.9-7.1-3.3-16 11-12.2 23.6-5 7.4 22.9zm7.6-23.3l-6.6 20.4-6.6-20.4 6.6-1.4 6.6 1.4zm32.9 33.7l-7.9 7.1-10.1 3.3-15.6-5.1-5.1-15.6 7.4-22.9 23.6 5 11 12.2-3.3 16zm46 11.3l-16.1 17.9-16.1 3.4-12.2-11-2.2-10.4 2.2-10.3 12.2-11 16.1 3.4 16.1 18zm7.8 12.8l-21 4.5 14.4-16 4.5 5 2.1 6.5z"/><path class="st2" d="M78.9 0l-2.4.5v1.8h.1l7-1.5 2.3 7 4.9 5.4-4.8 5.5 1.6.9 4.5-5 14.3 15.9 5.1 2.9 14.5 3.1.3-.3 10.7-9.7-3 14.6.3.3 9.7 10.7 5.1 2.9 21 4.5-2.1 6.4 1.6.9v-.1l2.2-6.8 7.2 1.5h.1l7-1.5 2.3 7 1.6-.9-2.1-6.4 21-4.5 5.1-2.9 9.9-11-.1-.4-3-14.1 11 9.9.4-.1 14.1-3 5.1-2.9 14.3-15.9 4.5 5 1.6-.9-.1-.1-4.8-5.4 4.9-5.5 2.3-6.9 7.2 1.5V.5l-2.5-.5h-8.6l2.1.4-2.1 6.4-4.5 5L255 0h-2.4l11.9 13.2-16.1 17.9-16.1 3.4-12.2-11-2.2-10.4 2.2-10.3 3.1-2.8h-4.4l-.4 2-7.9 7.1-10.1 3.3-15.6-5.1-2.3-7.1h-1.9l2.8 8.6 14.1 4.6-14.1 4.6-.1.4-4.4 13.6-4.6-14.1-14.1-4.6 14.1-4.6 2.8-8.6h-1.9l-2.3 7.1-15.6 5.1L147.2 9l-7.8-7-.4-1.9h-4.4l3.1 2.8 2.2 10.4-2.2 10.3-12.2 11-16.1-3.4-16.1-17.9L105.2.1h-2.4L92.1 11.9l-4.5-5L85.5.5l2-.4C84.6 0 81.8 0 78.9 0zm75.5 13.3l-8.1 2.6-6.3 5.6 1.8-8.3v-.1L140 5l6.3 5.7 8.1 2.6zm61.7.1l1.7 8.1-6.3-5.7-8-2.6 8.1-2.6 6.3-5.6-1.8 8.3v.1l.5-.1-.5.1zm-36.2 21.5l5.1-15.6 15.6-5.1 10.1 3.3 7.9 7.1 3.4 16.1-11 12.2-23.6 5-7.5-23zm-7.6 23.3l6.6-20.4 6.6 20.4-6.6 1.4-6.6-1.4zm-32.9-33.6l7.9-7.1 10.1-3.3 15.6 5.1 5.1 15.6-7.4 22.9-23.6-5-11-12.2 3.3-16z"/><path class="st2" d="M379 126.9l4.6-14.1V107L377 86.5l6.6-1.4v-1.8h-.1l-7 1.5-2.3-7-.1-.1-4.8-5.3 4.9-5.5-1.6-.9-4.5 5-14.3-15.9-5.1-2.9-14.5-3.1-.3.3-10.8 9.6 3.1-14.5-.3-.3-9.7-10.7-5.1-2.9-21-4.5 2.1-6.4-1.6-.9v.1l-2.2 6.8-7.2-1.5h-.1l-7 1.5-2.3-7-1.6.9 2.1 6.4-21 4.5-5.1 2.9-9.9 11 .1.4 3 14.1-11-9.9-.4.1-14.1 3-5.1 2.9-14.3 16-4.5-5-1.6.9.1.1 4.8 5.4-4.9 5.5-2.3 6.9-7.2-1.5v1.8l6.6 1.4-6.6 20.4v5.8l4.4 13.5h4.2l-2.6-.8-5.1-15.6 7.4-22.9 23.6 5 11 12.2-3.4 16.1-6.9 6.2h2.7l3.5-3.2-.7 3.2h1.8l1.1-5.3 12.2-11 16.1 3.4 11.8 13.1h2.4l-11.2-12.5 21 4.5-2.1 6.4-1.5 1.6h2.4l.7-.8 2.3-6.9 7.2 1.5h.1l7-1.5 2.3 7 .1.1.7.8h2.5l-1.7-1.9-2.1-6.4 21-4.5-11.5 13h2.4l12.1-13.5 16.1-3.4 12.2 11 1.4 6.5h1.9l-.9-4.4 5 4.5h3.6l-1.3-.4-7.9-7.1-3.4-16.1 11-12.2 23.6-5 7.4 22.9-5.1 15.6-7.1 2.3c1.9-.1 4.1-.2 6.8-.3l1.6-.5zm-62.8-15.6l9.9-11-.1-.4-3-14.1 11 9.9.4-.1 14.1-3-9.9 11 .1.4 3 14.1-11-9.9-.4.1-14.1 3zm-34-17.3l5.1-15.6 15.6-5.1 10.1 3.3 7.9 7.1 3.4 16.1-11 12.2-23.6 5-7.5-23zm36.2-21.6v.1l1.7 8.2-6.3-5.7-8-2.6 8.1-2.6 6.3-5.6-1.8 8.2zM285.8 77l-4.6 14.1-4.5-14.1-.4-.1-13.7-4.5 14.1-4.6 4.6-14.1 4.6 14.1 14.1 4.6-14.2 4.6zm-11.2 40.3l6.6-20.4 6.6 20.4-6.6 1.4-6.6-1.4zm-36.3-17.6l3.4-16.1 7.9-7.1 10.1-3.3 15.6 5.1 5.1 15.6-7.4 22.9-23.6-5-11.1-12.1zm5.8-27.5l-1.7-8.1 6.3 5.7 8 2.6-8.1 2.6-6.3 5.6 1.8-8.3v-.1l-.5.1.5-.1zm-30.2 20.4l14.5 3.1.3-.3 10.7-9.7-3.1 14.5.3.3 9.7 10.7-14.5-3.1-.3.3-10.7 9.7 3.1-14.5-.3-.3-9.7-10.7zm-5.1-3l-21-4.5 2.1-6.4 4.5-5 14.4 15.9zM240.1 62l2.2 10.4-2.2 10.3-12.2 11-16.1-3.4-16.1-17.9 16.1-17.9 16.1-3.4L240.1 62zm40.2-11.3l-5.1 15.6-15.6 5.1-10.1-3.3-7.9-7.1-3.3-16 11-12.2 23.6-5 7.4 22.9zm7.6-23.3l-6.6 20.4-6.6-20.4 6.6-1.4 6.6 1.4zm32.9 33.7l-7.9 7.1-10.1 3.3-15.6-5.1-5.1-15.6 7.4-22.9 23.6 5 11 12.2-3.3 16zm46 11.3l-16.1 17.9-16.1 3.4-12.2-11-2.2-10.4 2.2-10.3 12.2-11 16.1 3.4 16.1 18zm7.8 12.8l-21 4.5 14.4-16 4.5 5 2.1 6.5zM584.3 125.2l4-12.5v-5.8l-6.6-20.4 6.6-1.4v-1.8h-.1l-7 1.5-2.3-7-.1-.1-4.8-5.3 4.9-5.5-1.6-.9-4.5 5-14.3-15.9-5.1-2.9-14.5-3.1-.3.3-10.8 9.6 3.1-14.5-.3-.3-9.7-10.7-5.1-2.9-21-4.5 2.1-6.4-1.6-.9v.1l-2.2 6.8-7.2-1.5h-.1l-7 1.5-2.3-7-1.6.9L477 26l-21 4.5-5.1 2.9-9.9 11 .1.4 3 14.1-11-9.9-.4.1-14.1 3-5.1 2.9-14.3 16-4.5-5-1.6.9.1.1 4.8 5.4-4.9 5.5-2.3 6.9-7.2-1.5v1.8l6.6 1.4-6.6 20.4v5.8l4.6 14.1.4.1.3.1c1.7 0 3.5-.1 5.4-.1l-4.7-1.5-5.1-15.6 7.4-22.9 23.6 5 11 12.2-3.4 16.1-7.1 6.4h2.7l3.7-3.3-.7 3.3h1.9l1.1-5.3 12.2-11 16.1 3.4 11.2 12.4h2.4L456 114.2l21 4.5-2.1 6.4-.7.8h2.4l2.2-6.8 7.2 1.5h.1l7-1.5 2.2 6.7h2.2l-.5-.6-2.1-6.4 21-4.5-10.3 11.4h2.4l10.8-12 16.1-3.4 12.2 11 .9 4.3h1.8l-.5-2.2 2.4 2.2h2.7l-5.7-5.2-3.4-16.1 11-12.2 23.6-5 7.4 22.9-5 15.4c.7-.2 1.3-.2 2-.2zm-63.4-13.9l9.9-11-.1-.4-3-14.1 11 9.9.4-.1 14.1-3-9.9 11 .1.4 3 14.1-11-9.9-.4.1-14.1 3zm-34-17.3l5.1-15.6 15.6-5.1 10.1 3.3 7.9 7.1 3.4 16.1-11 12.2-23.6 5-7.5-23zm36.2-21.6v.1l1.7 8.2-6.3-5.7-8-2.6 8.1-2.6 6.3-5.6-1.8 8.2zM490.5 77L486 91.1 481.4 77l-.4-.1-13.7-4.5 14.1-4.6 4.6-14.1 4.6 14.1 14.1 4.6-14.2 4.6zm-11.2 40.3l6.6-20.4 6.6 20.4-6.6 1.4-6.6-1.4zM443 99.7l3.4-16.1 7.9-7.1 10.1-3.3 15.6 5.1 5 15.7-7.4 22.9-23.6-5-11-12.2zm5.8-27.5l-1.7-8.1 6.3 5.7 8 2.6-8.1 2.6-6.3 5.6 1.8-8.3v-.1l-.5.1.5-.1zm-30.2 20.4l14.5 3.1.3-.3 10.7-9.7-3.1 14.5.3.3 9.7 10.7-14.5-3.1-.3.3-10.7 9.7 3.1-14.5-.3-.3-9.7-10.7zm-5.1-3l-21-4.5 2.1-6.4 4.5-5 14.4 15.9zM444.8 62l2.2 10.4-2.2 10.3-12.2 11-16.1-3.4-16.1-17.9 16.1-17.9 16.1-3.4L444.8 62zM485 50.7l-5.1 15.6-15.6 5.1-10.1-3.3-7.9-7.1-3.3-16 11-12.2 23.6-5 7.4 22.9zm7.6-23.3L486 47.8l-6.6-20.4L486 26l6.6 1.4zm32.9 33.7l-7.9 7.1-10.1 3.3-15.5-5.2-5.1-15.6 7.4-22.9 23.6 5 11 12.2-3.4 16.1zm46 11.3l-16.1 17.9-16.1 3.4-12.2-11-2.2-10.4 2.2-10.3 12.2-11 16.1 3.4 16.1 18zm7.8 12.8l-21 4.5 14.3-15.9 4.5 5 2.2 6.4z"/><path class="st2" d="M281.3.5v1.8h.1l7-1.5 2.3 7 4.9 5.4-4.9 5.5 1.6.9 4.5-5 14.3 15.9 5.1 2.9 14.5 3.1.3-.3 10.7-9.7-3.1 14.5.3.3 9.7 10.7 5.1 2.9 21 4.5-2.1 6.4 1.6.9v-.1l2.2-6.8 7.2 1.5h.1l7-1.5 2.3 7 1.6-.9-2.1-6.4 21-4.5 5.1-2.9 9.9-11-.1-.4-3-14.1 11 9.9.4-.1 14.1-3 5.1-2.9 14.3-15.9 4.5 5 1.6-.9-.1-.1-4.8-5.4 4.9-5.5 2.3-6.9 7.2 1.5V.5l-6.6-1.4.5-1.6h-1.9l-.4 1.2-4.3-.9c-2.4.1-4.9.2-7.3.3L477 .5l-2.1 6.4-4.5 5L458-1.8H455.6l13.5 15-16.1 18-16 3.4-12.2-11-2.2-10.4 2.2-10.3 4.6-4.1c-.9 0-1.8 0-2.8.1L425.4 0l.2-1.1h-1.9l-.6 3.1-7.9 7.1-10.1 3.3-15.6-5.1-2.6-8H385l3.1 9.4 14.1 4.6-14.1 4.6-.1.4-4.4 13.7-4.6-14.1-14.1-4.6L379 8.7l3-9.4h-1.9l-2.6 7.9-15.5 5.1L351.9 9l-7.8-7-.5-2.3h-1.8l.1.3-.3-.3h-2.7l3.6 3.2 2.2 10.4-2.2 10.3-12.2 11-16.1-3.4L298 13.3 310.1-.1h-2.4L296.8 12l-4.5-5-2.1-6.4 2.5-.5h-8.9l-2.5.4zm77.8 12.8l-8.1 2.6-6.3 5.6 1.8-8.3v-.1L344.7 5l6.3 5.7 8.1 2.6zm61.7.1l1.7 8.1-6.3-5.7-8-2.6 8.1-2.6 6.3-5.6-1.8 8.3v.1l.5-.1-.5.1zm-36.2 21.5l5.1-15.6 15.6-5.1 10.1 3.3 7.9 7.1 3.4 16.1-11 12.2-23.6 5-7.5-23zM377 58.2l6.6-20.4 6.6 20.4-6.6 1.4-6.6-1.4zm-32.9-33.6l7.9-7.1 10.1-3.3 15.6 5.1 5.1 15.6-7.4 22.9-23.6-5-11-12.2 3.3-16z"/><path class="st2" d="M584.3 125.2l4-12.5v-5.8l-6.6-20.4 6.6-1.4v-1.8h-.1l-7 1.5-2.3-7-.1-.1-4.8-5.3 4.9-5.5-1.6-.9-4.5 5-14.3-15.9-5.1-2.9-14.5-3.1-.3.3-10.8 9.6 3.1-14.5-.3-.3-9.7-10.7-5.1-2.9-21-4.5 2.1-6.4-1.6-.9v.1l-2.2 6.8-7.2-1.5h-.1l-7 1.5-2.3-7-1.6.9L477 26l-21 4.5-5.1 2.9-9.9 11 .1.4 3 14.1-11-9.9-.4.1-14.1 3-5.1 2.9-14.3 16-4.5-5-1.6.9.1.1 4.8 5.4-4.9 5.5-2.3 6.9-7.2-1.5v1.8l6.6 1.4-6.6 20.4v5.8l4.6 14.1.4.1.3.1c1.7 0 3.5-.1 5.4-.1l-4.7-1.5-5.1-15.6 7.4-22.9 23.6 5 11 12.2-3.4 16.1-7.1 6.4h2.7l3.7-3.3-.7 3.3h1.9l1.1-5.3 12.2-11 16.1 3.4 11.2 12.4h2.4L456 114.2l21 4.5-2.1 6.4-.7.8h2.4l2.2-6.8 7.2 1.5h.1l7-1.5 2.2 6.7h2.2l-.5-.6-2.1-6.4 21-4.5-10.3 11.4h2.4l10.8-12 16.1-3.4 12.2 11 .9 4.3h1.8l-.5-2.2 2.4 2.2h2.7l-5.7-5.2-3.4-16.1 11-12.2 23.6-5 7.4 22.9-5 15.4c.7-.2 1.3-.2 2-.2zm-63.4-13.9l9.9-11-.1-.4-3-14.1 11 9.9.4-.1 14.1-3-9.9 11 .1.4 3 14.1-11-9.9-.4.1-14.1 3zm-34-17.3l5.1-15.6 15.6-5.1 10.1 3.3 7.9 7.1 3.4 16.1-11 12.2-23.6 5-7.5-23zm36.2-21.6v.1l1.7 8.2-6.3-5.7-8-2.6 8.1-2.6 6.3-5.6-1.8 8.2zM490.5 77L486 91.1 481.4 77l-.4-.1-13.7-4.5 14.1-4.6 4.6-14.1 4.6 14.1 14.1 4.6-14.2 4.6zm-11.2 40.3l6.6-20.4 6.6 20.4-6.6 1.4-6.6-1.4zM443 99.7l3.4-16.1 7.9-7.1 10.1-3.3 15.6 5.1 5 15.7-7.4 22.9-23.6-5-11-12.2zm5.8-27.5l-1.7-8.1 6.3 5.7 8 2.6-8.1 2.6-6.3 5.6 1.8-8.3v-.1l-.5.1.5-.1zm-30.2 20.4l14.5 3.1.3-.3 10.7-9.7-3.1 14.5.3.3 9.7 10.7-14.5-3.1-.3.3-10.7 9.7 3.1-14.5-.3-.3-9.7-10.7zm-5.1-3l-21-4.5 2.1-6.4 4.5-5 14.4 15.9zM444.8 62l2.2 10.4-2.2 10.3-12.2 11-16.1-3.4-16.1-17.9 16.1-17.9 16.1-3.4L444.8 62zM485 50.7l-5.1 15.6-15.6 5.1-10.1-3.3-7.9-7.1-3.3-16 11-12.2 23.6-5 7.4 22.9zm7.6-23.3L486 47.8l-6.6-20.4L486 26l6.6 1.4zm32.9 33.7l-7.9 7.1-10.1 3.3-15.5-5.2-5.1-15.6 7.4-22.9 23.6 5 11 12.2-3.4 16.1zm46 11.3l-16.1 17.9-16.1 3.4-12.2-11-2.2-10.4 2.2-10.3 12.2-11 16.1 3.4 16.1 18zm7.8 12.8l-21 4.5 14.3-15.9 4.5 5 2.2 6.4zM789 125.2l4-12.5v-5.8l-6.6-20.4 6.6-1.4v-1.8h-.1l-7 1.5-2.3-7-.1-.1-4.8-5.3 4.9-5.5-1.6-.9-4.5 5-14.3-15.9-5.1-2.9-14.5-3.1-.3.3-10.8 9.6 3.1-14.5-.3-.3-9.7-10.7-5.1-2.9-21-4.5 2.1-6.4-1.6-.9v.1l-2.2 6.8-7.2-1.5h-.1l-7 1.5-2.3-7-1.6.9 2.1 6.4-21 4.5-5.1 2.9-9.9 11 .1.4 3 14.1-11-9.9-.4.1-14.1 3-5.1 2.9-14.3 16-4.5-5-1.6.9.1.1 4.8 5.4-4.9 5.5-2.3 6.9-7.2-1.5v1.8l6.6 1.4-6.6 20.4v5.8l4 12.4h1.9l-5-15.3 7.4-22.9 23.6 5 11 12.2-3.4 16.1-5.5 4.9h2.7l2.1-1.9-.4 1.9h1.8l.8-4 12.2-11 16.1 3.4 10.3 11.5h2.4l-9.8-10.9 21 4.5-2.1 6.4h1.9l2-6 7.2 1.5h.1l7-1.5 2 6h1.9l-2.1-6.4 21-4.5-9.8 10.9h2.4l10.4-11.5 16.1-3.4 12.2 11 .9 4h1.8l-.4-2 2.2 2h2.7l-5.5-5L750 104l11-12.2 23.6-5 7.4 22.9-5 15.4c.7.1 1.3.1 2 .1zm-63.4-13.9l9.9-11-.1-.4-3-14.1 11 9.9.4-.1 14.1-3-9.9 11 .1.4 3 14.1-11-9.9-.4.1-14.1 3zm-34-17.3l5.1-15.6 15.6-5.1 10.1 3.3 7.9 7.1 3.4 16.1-11 12.2-23.6 5-7.5-23zm36.2-21.6v.1l1.7 8.2-6.3-5.7-8-2.6 8.1-2.6 6.3-5.6-1.8 8.2zM695.2 77l-4.6 14.1-4.5-14.1-.4-.1-13.7-4.5 14.1-4.6 4.6-14.1 4.6 14.1 14.1 4.6-14.2 4.6zM684 117.3l6.6-20.4 6.6 20.4-6.6 1.4-6.6-1.4zm-36.3-17.6l3.4-16.1 7.9-7.1 10.1-3.3 15.6 5.1 5.1 15.6-7.4 22.9-23.6-5-11.1-12.1zm5.8-27.5l-1.7-8.1 6.3 5.7 8 2.6L658 75l-6.3 5.6 1.8-8.3v-.1l-.5.1.5-.1zm-30.2 20.4l14.5 3.1.3-.3 10.7-9.7-3.1 14.5.3.3 9.7 10.7-14.5-3.1-.3.3-10.7 9.7 3.1-14.5-.3-.3-9.7-10.7zm-5.1-3l-21-4.5 2.1-6.4 4.5-5 14.4 15.9zM649.5 62l2.2 10.4-2.2 10.3-12.2 11-16.1-3.4-16.1-17.9 16.1-17.9 16.1-3.4L649.5 62zm40.2-11.3l-5.1 15.6-15.6 5.1-10-3.2-7.9-7.1-3.4-16.1 11-12.2 23.6-5 7.4 22.9zm7.6-23.3l-6.6 20.4-6.7-20.4 6.6-1.4 6.7 1.4zm32.9 33.7l-7.9 7.1-10.1 3.3-15.6-5.1-5.1-15.6 7.4-22.9 23.6 5 11 12.2-3.3 16zm46 11.3l-16.1 17.9-16.1 3.4-12.2-11-2.2-10.4 2.2-10.3L744 51l16.1 3.4 16.1 18zm7.8 12.8l-21 4.5 14.3-15.9 4.5 5 2.2 6.4z"/><path class="st2" d="M492.6-.9L486 .5v1.8h.1l7-1.5 2.3 7 4.9 5.4-4.9 5.5 1.6.9 4.5-5 14.3 15.9 5.1 2.9 14.5 3.1.3-.3 10.7-9.7-3.1 14.5.3.3 9.7 10.7 5.1 2.9 21 4.5-2.1 6.4 1.6.9v-.1l2.2-6.8 7.2 1.5h.1l7-1.5 2.3 7 1.6-.9-2.1-6.4 21-4.5 5.1-2.9 9.9-11-.1-.4-3-14.1 11 9.9.4-.1 14.1-3 5.1-2.9L675 14.6l4.5 5 1.6-.9-.1-.1-4.8-5.4 4.9-5.5 2.3-6.9 7.2 1.5V.5L684-.9l.4-1.1h-1.9l-.2.7-3.5-.7h-8.7L681.7.5l-2.1 6.4-4.5 5L662.5-2h-2.4l13.8 15.3-16.1 17.9-16.1 3.4-12.2-11-2.2-10.4 2.2-10.3 5.5-5h-2.7l-2.2 2 .4-2h-1.8l-.9 4-7.8 7.2-10.1 3.3-15.6-5.1-3-9.3h-1.9l3.5 10.8 14.1 4.6-14.1 4.6-.1.4-4.5 13.6-4.6-14.1-14.1-4.6 14.1-4.6 3.5-10.8h-1.9l-3 9.3-15.6 5.1L556.6 9l-7.8-7-.9-4.1h-1.8l.4 2.1-2.3-2.1h-2.7l5.7 5.1 2.2 10.4-2.2 10.3-12.2 11-16.1-3.4-16.1-17.9 14-15.5h-2.4l-12.8 14.2-4.5-5L495 .7l13-3h-8.5l-5.2 1.1-.3-1.2h-1.9l.5 1.5zm71.2 14.2l-8.1 2.6-6.3 5.6 1.8-8.3v-.1L549.4 5l6.3 5.7 8.1 2.6zm61.7.1l1.7 8.1-6.3-5.7-8-2.6 8.1-2.6 6.3-5.6-1.8 8.3v.1l.5-.1-.5.1zm-36.2 21.5l5.1-15.6 15.6-5.1 10.1 3.3 7.9 7.1 3.4 16.1-11 12.2-23.6 5-7.5-23zm-7.6 23.3l6.6-20.4 6.6 20.4-6.6 1.4-6.6-1.4zm-32.9-33.6l7.9-7.1 10.1-3.3 15.6 5.1 5.1 15.6-7.4 22.9-23.6-5-11-12.2 3.3-16z"/><path class="st2" d="M789 125.2l4-12.5v-5.8l-6.6-20.4 6.6-1.4v-1.8h-.1l-7 1.5-2.3-7-.1-.1-4.8-5.3 4.9-5.5-1.6-.9-4.5 5-14.3-15.9-5.1-2.9-14.5-3.1-.3.3-10.8 9.6 3.1-14.5-.3-.3-9.7-10.7-5.1-2.9-21-4.5 2.1-6.4-1.6-.9v.1l-2.2 6.8-7.2-1.5h-.1l-7 1.5-2.3-7-1.6.9 2.1 6.4-21 4.5-5.1 2.9-9.9 11 .1.4 3 14.1-11-9.9-.4.1-14.1 3-5.1 2.9-14.3 16-4.5-5-1.6.9.1.1 4.8 5.4-4.9 5.5-2.3 6.9-7.2-1.5v1.8l6.6 1.4-6.6 20.4v5.8l4 12.4h1.9l-5-15.3 7.4-22.9 23.6 5 11 12.2-3.4 16.1-5.5 4.9h2.7l2.1-1.9-.4 1.9h1.8l.8-4 12.2-11 16.1 3.4 10.3 11.5h2.4l-9.8-10.9 21 4.5-2.1 6.4h1.9l2-6 7.2 1.5h.1l7-1.5 2 6h1.9l-2.1-6.4 21-4.5-9.8 10.9h2.4l10.4-11.5 16.1-3.4 12.2 11 .9 4h1.8l-.4-2 2.2 2h2.7l-5.5-5L750 104l11-12.2 23.6-5 7.4 22.9-5 15.4c.7.1 1.3.1 2 .1zm-63.4-13.9l9.9-11-.1-.4-3-14.1 11 9.9.4-.1 14.1-3-9.9 11 .1.4 3 14.1-11-9.9-.4.1-14.1 3zm-34-17.3l5.1-15.6 15.6-5.1 10.1 3.3 7.9 7.1 3.4 16.1-11 12.2-23.6 5-7.5-23zm36.2-21.6v.1l1.7 8.2-6.3-5.7-8-2.6 8.1-2.6 6.3-5.6-1.8 8.2zM695.2 77l-4.6 14.1-4.5-14.1-.4-.1-13.7-4.5 14.1-4.6 4.6-14.1 4.6 14.1 14.1 4.6-14.2 4.6zM684 117.3l6.6-20.4 6.6 20.4-6.6 1.4-6.6-1.4zm-36.3-17.6l3.4-16.1 7.9-7.1 10.1-3.3 15.6 5.1 5.1 15.6-7.4 22.9-23.6-5-11.1-12.1zm5.8-27.5l-1.7-8.1 6.3 5.7 8 2.6L658 75l-6.3 5.6 1.8-8.3v-.1l-.5.1.5-.1zm-30.2 20.4l14.5 3.1.3-.3 10.7-9.7-3.1 14.5.3.3 9.7 10.7-14.5-3.1-.3.3-10.7 9.7 3.1-14.5-.3-.3-9.7-10.7zm-5.1-3l-21-4.5 2.1-6.4 4.5-5 14.4 15.9zM649.5 62l2.2 10.4-2.2 10.3-12.2 11-16.1-3.4-16.1-17.9 16.1-17.9 16.1-3.4L649.5 62zm40.2-11.3l-5.1 15.6-15.6 5.1-10-3.2-7.9-7.1-3.4-16.1 11-12.2 23.6-5 7.4 22.9zm7.6-23.3l-6.6 20.4-6.7-20.4 6.6-1.4 6.7 1.4zm32.9 33.7l-7.9 7.1-10.1 3.3-15.6-5.1-5.1-15.6 7.4-22.9 23.6 5 11 12.2-3.3 16zm46 11.3l-16.1 17.9-16.1 3.4-12.2-11-2.2-10.4 2.2-10.3L744 51l16.1 3.4 16.1 18zm7.8 12.8l-21 4.5 14.3-15.9 4.5 5 2.2 6.4zM793 85.1l6.6 1.4-6.6 20.4v5.8l4.1 12.5h1.9l-5-15.4 7.4-22.9 23.6 5 11 12.2-3.4 16.1-5.8 5.2h2.7l2.5-2.2-.5 2.2h1.8l.9-4.3 12.2-11 16.1 3.4 10.9 12.2h2.5l-10.4-11.5 21 4.5-2.1 6.4-.6.7h2.3l2.2-6.8 7.2 1.5h.1l1.1-.2v-1.8l-1.3.3-6.6-1.4 6.6-20.4 1.3 3.9V95l-.3-.9.3-.9v-5.8l-1.2 3.8-4.7-14.2-.4-.1-13.7-4.5 14.1-4.6 4.6-14.1 1.2 3.8v-5.8l-.3-1 .3-1v-5.9l-1.3 4-6.6-20.4 6.6-1.4 1.4.3v-1.8l-1.4-.3h-.1l-7 1.5-2.3-7-1.6.9 2.1 6.4-21 4.5-5.1 2.9-9.9 11 .1.4 3 14.1-11-9.9-.4.1-14.1 3-5.1 2.9-14.3 16-4.5-5-1.6.9.1.1 4.8 5.4-4.9 5.5-2.3 6.9-7.2-1.5v1.8zm80.7-13.7l-10.1-3.3-7.9-7.1-3.3-16 11-12.2 23.6-5 7.4 22.9-5.1 15.6-15.6 5.1zm-15.5.8l-1.7-8.1 6.3 5.7 8 2.6-8.1 2.6-6.3 5.6 1.8-8.3v-.1l-.5.1.5-.1zm-5.8 27.5l3.4-16.1 7.9-7.1 10.1-3.3 15.6 5.1 5.1 15.6-7.4 22.9-23.6-5-11.1-12.1zM828 92.6l14.5 3.1.3-.3 10.7-9.7-3.1 14.5.3.3 9.7 10.7-14.5-3.1-.3.3-10.7 9.7 3.1-14.5-.3-.3-9.7-10.7zm-18.2-20.2l16.1-17.9L842 51l12.2 11 2.2 10.4-2.2 10.3-12.2 11-16.1-3.4-16.1-17.9zM802 85.2l2.1-6.4 4.5-5 14.3 15.9-20.9-4.5z"/><path class="st2" d="M697.3-.9L690.7.5v1.8h.1l7-1.5 2.3 7 4.9 5.4-4.9 5.5 1.6.9 4.5-5 14.3 15.9 5.1 2.9 14.5 3.1.3-.3 10.7-9.7L748 41l.3.3L758 52l5.1 2.9 21 4.5L782 66l1.6.9v-.1l2.2-6.8 7.2 1.5h.1l7-1.5 2.3 7 1.6-.9-2.1-6.4 21-4.5 5.1-2.9 9.9-11-.1-.4-3-14.1 11 9.9.4-.1 14.1-3 5.1-2.9 14.3-15.9 4.5 5 1.6-.9-.1-.1-4.8-5.4 4.9-5.5 2.3-6.9 7.2 1.5v-2l-6.6-1.4.7-2.2h-1.9l-.5 1.8-8-1.7h-8.4L886.4.4l-2.1 6.4-4.5 5-13.3-14.7h-2.4l14.5 16.1-16.1 17.9-16.1 3.4-12.2-11-2.2-10.2L834.2 3l6.2-5.6h-2.7l-2.8 2.5.5-2.5h-1.9l-1 4.6-7.9 7.1-10.1 3.3L799 7.2l-3.1-9.6H794l3.6 11 14.1 4.6-14.1 4.6-.1.4L793 32l-4.6-14.1-14.1-4.6 14.1-4.6 3.6-11h-1.9L787 7.2l-15.6 5.1L761.3 9l-7.8-7-.9-4.1h-1.8l.4 2.1-2.3-2h-2.7l5.6 5 2.2 10.4-2.2 10.3-12.2 11-16.1-3.4-16.1-17.9 13.8-15.3h-2.4l-12.6 14-4.5-5-2.1-6.4L711.4-2h-8.7l-3.6.8-.3-.8h-1.9l.4 1.1zm71.2 14.2l-8.1 2.6-6.3 5.6 1.8-8.3v-.1L754.1 5l6.3 5.7 8.1 2.6zm61.7.1l1.7 8.1-6.3-5.7-8-2.6 8.1-2.6L832 5l-1.8 8.3v.1l.5-.1-.5.1zM794 34.9l5.1-15.6 15.6-5.1 10.1 3.3 7.9 7.1 3.4 16.1-11 12.2-23.6 5-7.5-23zm-7.6 23.3l6.6-20.4 6.6 20.4-6.6 1.4-6.6-1.4zm-32.9-33.6l7.9-7.1 10.1-3.3 15.6 5.1 5.1 15.6-7.4 22.9-23.6-5-11-12.2 3.3-16z"/></g></g></svg>